<svg width="800" height="600" viewBox="0 0 800 600" fill="none" xmlns="http://www.w3.org/2000/svg">
  <!-- Background -->
  <rect width="800" height="600" rx="12" fill="#121212"/>
  
  <!-- Chat Messages -->
  <rect x="30" y="80" width="540" height="80" rx="8" fill="#1E1E1E"/>
  <rect x="50" y="100" width="500" height="12" rx="2" fill="#6D5DFC" fill-opacity="0.6"/>
  <rect x="50" y="122" width="460" height="12" rx="2" fill="#6D5DFC" fill-opacity="0.6"/>
  <rect x="50" y="144" width="380" height="12" rx="2" fill="#6D5DFC" fill-opacity="0.6"/>
  
  <rect x="230" y="200" width="540" height="100" rx="8" fill="#1A1A1A"/>
  <rect x="250" y="220" width="500" height="12" rx="2" fill="#ECECEC"/>
  <rect x="250" y="242" width="480" height="12" rx="2" fill="#ECECEC"/>
  <rect x="250" y="264" width="440" height="12" rx="2" fill="#ECECEC"/>
  <rect x="250" y="286" width="300" height="12" rx="2" fill="#ECECEC"/>
  
  <rect x="30" y="330" width="540" height="80" rx="8" fill="#1E1E1E"/>
  <rect x="50" y="350" width="500" height="12" rx="2" fill="#6D5DFC" fill-opacity="0.6"/>
  <rect x="50" y="372" width="460" height="12" rx="2" fill="#6D5DFC" fill-opacity="0.6"/>
  <rect x="50" y="394" width="380" height="12" rx="2" fill="#6D5DFC" fill-opacity="0.6"/>
  
  <!-- Input area -->
  <rect x="30" y="500" width="740" height="60" rx="8" fill="#1E1E1E"/>
  <rect x="50" y="524" width="680" height="12" rx="2" fill="#ECECEC" fill-opacity="0.2"/>
  <circle cx="740" cy="530" r="20" fill="#6D5DFC"/>
  
  <!-- Avatar/Model Icons -->
  <circle cx="700" cy="100" r="20" fill="#6D5DFC"/>
  <circle cx="700" cy="240" r="20" fill="#ECECEC"/>
  <circle cx="700" cy="370" r="20" fill="#6D5DFC"/>
  
  <!-- Header -->
  <rect x="0" y="0" width="800" height="50" fill="#0F0F0F"/>
  <rect x="30" y="17" width="120" height="16" rx="2" fill="#6D5DFC"/>
  <circle cx="730" cy="25" r="15" fill="#1E1E1E"/>
  <circle cx="770" cy="25" r="15" fill="#1E1E1E"/>
</svg>
