<?xml version="1.0" encoding="UTF-8"?>
<svg version="1.1" xmlns="http://www.w3.org/2000/svg" width="860" height="634">
<path d="M0 0 C6.44633802 4.29755868 8.13958067 12.20878316 10.3359375 19.265625 C16.24163385 38.08741963 24.32637921 48.61767636 41.90332031 57.93652344 C45.77892772 59.90230661 49.73944376 61.68561878 53.6875 63.5 C70.65885588 71.36424357 85.86149586 83.46231694 92.92382812 101.33837891 C94.79738937 106.50483533 96.43900636 111.73164645 98 117 C98.83917969 116.18208984 98.83917969 116.18208984 99.6953125 115.34765625 C119.04300517 97.15087134 143.26121179 87.67433549 169.82397461 88.09277344 C190.60136368 88.36184195 205.80861274 82.68094191 220.69775391 68.3046875 C222.47793487 66.54868476 224.24178144 64.77796814 226 63 C227.03075705 61.96955875 228.06197598 60.93957922 229.09375 59.91015625 C230.78723058 58.21424251 232.47238906 56.50992547 234.14453125 54.79296875 C237.41067981 51.63683782 240.21523695 51.54659465 244.609375 51.58203125 C249.38996759 52.41785381 252.45942635 55.81537382 255.16796875 59.65625 C263.47635201 83.06014652 249.89823707 119.48499754 240.015625 140.90576172 C234.21858226 152.85937533 227.05106226 163.30509929 218 173 C217.30052246 173.76304443 217.30052246 173.76304443 216.58691406 174.54150391 C190.31052436 202.99106105 156.25339833 213.99243702 119 220 C119.01571045 220.75804932 119.0314209 221.51609863 119.04760742 222.29711914 C119.34845134 239.13295435 118.95557028 255.37645526 116 272 C115.77425293 273.27020996 115.54850586 274.54041992 115.31591797 275.84912109 C108.32040807 314.57827861 98.36064 352.77966302 82.03955078 388.70654297 C81.0585181 390.87089736 80.1034802 393.04504088 79.15234375 395.22265625 C67.65042158 421.08658776 51.54185983 444.64104795 33.42822266 466.28369141 C31.37856068 468.74678948 29.38148927 471.25168921 27.375 473.75 C23.28826779 478.74572963 18.95621286 483.48370661 14.5703125 488.21484375 C11.87216541 491.13851986 9.23753714 494.10703934 6.63671875 497.1171875 C5.44461829 498.4885298 4.23666667 499.84614069 3.01953125 501.1953125 C2.37371094 501.91460937 1.72789062 502.63390625 1.0625 503.375 C0.47597656 504.02210938 -0.11054687 504.66921875 -0.71484375 505.3359375 C-2.20374533 506.91339058 -2.20374533 506.91339058 -2 509 C4.85817717 512.61760235 11.76829704 515.51552801 19.0625 518.125 C30.98292879 522.49504691 42.58194326 527.45940034 54.14111328 532.70410156 C56.83770023 533.9264315 59.54123741 535.1320509 62.24609375 536.3359375 C63.78969838 537.03505605 65.33271253 537.73548051 66.875 538.4375 C67.56456787 538.74308838 68.25413574 539.04867676 68.96459961 539.36352539 C72.59203711 541.04621326 75.00223551 542.48644916 77 546 C78.88042493 551.6412748 78.780465 557.78183631 76.8125 563.375 C69.93104376 573.34124698 61.04604477 576.33821315 49.65478516 578.52978516 C11.18034387 585.34436801 -29.37924786 583.05164633 -66 569 C-66.99 568.67 -67.98 568.34 -69 568 C-69.44085937 568.42667969 -69.88171875 568.85335937 -70.3359375 569.29296875 C-123.4721135 618.66278745 -196.88830436 634.20994387 -267.1875 634.25 C-268.25413879 634.25067474 -269.32077759 634.25134949 -270.41973877 634.25204468 C-286.81225114 634.23559775 -302.79639096 633.68913211 -319 631 C-320.5763623 630.75056641 -320.5763623 630.75056641 -322.18457031 630.49609375 C-375.60240526 621.85709079 -426.59936567 598.51562077 -469 565 C-469.60618164 564.52240234 -470.21236328 564.04480469 -470.83691406 563.55273438 C-479.75200548 556.503184 -488.27201987 549.15523904 -496.5390625 541.359375 C-498.77706677 539.27695392 -501.07966454 537.26878902 -503.375 535.25 C-506.85486653 532.1264718 -509.9743697 528.90446766 -512.98046875 525.328125 C-514.57045605 523.49518026 -516.18643188 521.73554606 -517.86328125 519.984375 C-537.5368125 499.41084592 -554.06773716 475.34017661 -567 450 C-567.7108374 448.61506348 -567.7108374 448.61506348 -568.43603516 447.20214844 C-576.22830993 431.87775831 -582.67050409 416.34152106 -588 400 C-588.31807617 399.03304199 -588.63615234 398.06608398 -588.96386719 397.06982422 C-594.48334181 380.02404862 -598.02673858 362.63994197 -601 345 C-601.18079102 343.97406738 -601.36158203 342.94813477 -601.54785156 341.89111328 C-604.25677537 325.9687808 -604.30639063 309.98201391 -604.375 293.875 C-604.3830365 292.82484711 -604.391073 291.77469421 -604.39935303 290.69271851 C-604.73277122 233.20390051 -586.53498441 176.46240032 -551 131 C-550.29230469 130.08089844 -549.58460938 129.16179687 -548.85546875 128.21484375 C-544.86805741 123.12637208 -540.64890435 118.28357315 -536.2890625 113.51171875 C-534.74739771 111.8200968 -533.22154556 110.11394349 -531.7109375 108.39453125 C-527.09823027 103.15570053 -522.40057184 98.41705306 -517 94 C-516.48195801 93.56961426 -515.96391602 93.13922852 -515.43017578 92.69580078 C-506.34973199 85.16573886 -497.04244498 78.19793561 -487 72 C-486.33726074 71.59040039 -485.67452148 71.18080078 -484.99169922 70.75878906 C-465.86041824 59.1302382 -444.69615924 51.30712853 -423 46 C-422.2251123 45.80712402 -421.45022461 45.61424805 -420.65185547 45.41552734 C-382.87464564 36.2644271 -336.81463134 34.54187863 -298.62207031 42.72363281 C-288.54937108 44.73475915 -281.2852369 42.53700058 -272 39 C-270.58848501 38.48821499 -269.17587222 37.97944817 -267.76220703 37.47363281 C-264.85623936 36.42845473 -261.95672059 35.36778944 -259.06176758 34.29248047 C-180.69866387 5.19750796 -180.69866387 5.19750796 -149.25 19.25 C-145.87485535 21.10356304 -145.13262276 21.72965361 -143.375 25.3125 C-143.25125 26.199375 -143.1275 27.08625 -143 28 C-145.42278638 30.84414054 -147.84385845 32.51498891 -151.125 34.1875 C-161.33947333 39.71473968 -169.61326552 48.32813728 -173.87109375 59.23046875 C-176.11490996 67.23083415 -175.10312597 74.44406131 -172 82 C-170.20700511 85.16913103 -168.1997611 88.10104834 -166 91 C-165.401875 91.83015625 -164.80375 92.6603125 -164.1875 93.515625 C-161.67754797 96.36621337 -159.19003782 97.97977461 -155.9375 99.9375 C-141.32777542 109.00391572 -127.82553104 119.57529544 -115 131 C-113.66582031 132.16789062 -113.66582031 132.16789062 -112.3046875 133.359375 C-106.84660856 138.18438522 -101.69833443 143.2724208 -96.58203125 148.453125 C-94.46955619 150.53683716 -92.3357295 152.47358236 -90.0625 154.375 C-86.74442029 157.20946041 -83.82443453 160.32071318 -80.90625 163.5546875 C-73.46737629 171.69728701 -65.68871371 179.49736951 -57.89086914 187.29443359 C-55.43282032 189.75468387 -52.9829178 192.22286079 -50.53320312 194.69140625 C-42.67278595 202.58025331 -34.87955818 210.25149705 -26 217 C-25.35587158 217.50869629 -24.71174316 218.01739258 -24.0480957 218.54150391 C-14.33031948 226.1812061 -3.97743582 232.349029 7 238 C7.6487207 238.33467285 8.29744141 238.6693457 8.96582031 239.01416016 C17.07118821 243.18429502 17.07118821 243.18429502 26 244 C29.34420613 236.97176598 31.87529644 229.78055702 34.25 222.375 C34.79527344 220.7353125 34.79527344 220.7353125 35.3515625 219.0625 C38.04214379 211.18305205 38.04214379 211.18305205 38 203 C34.99943471 199.26426899 31.31761747 196.65179155 27.4375 193.875 C20.85471158 189.01087063 14.92773491 183.63308142 9 178 C8.36578125 177.43023437 7.7315625 176.86046875 7.078125 176.2734375 C-18.50249158 152.52000782 -30.41714955 114.89616327 -32 81 C-32.93990303 53.71433027 -27.98903174 26.30509409 -13 3 C-9.04983862 -0.7510605 -5.21970366 -0.95413938 0 0 Z M-520.8125 228.3125 C-522.1442627 228.48894043 -522.1442627 228.48894043 -523.50292969 228.66894531 C-531.59830533 229.86746552 -539.84453545 231.12604727 -545 238 C-547.09033766 243.64820691 -547.18558659 248.46981036 -546.8125 254.4375 C-546.76061523 255.34927002 -546.70873047 256.26104004 -546.65527344 257.20043945 C-542.13849794 328.37588431 -515.80678245 400.88222003 -470 456 C-469.17628906 457.00933594 -468.35257812 458.01867187 -467.50390625 459.05859375 C-455.72373494 473.29165712 -442.63832545 486.70557318 -428 498 C-426.29006757 499.43559748 -424.58180189 500.87318199 -422.875 502.3125 C-396.13649117 524.12050365 -364.98145139 543.96114288 -329.11035156 541.23925781 C-321.40151706 540.36528074 -315.04323594 537.31234871 -309.48046875 531.91015625 C-307.4776348 529.32602485 -306.71557866 527.41126178 -306.640625 524.14453125 C-307.5941934 518.45421547 -311.01213496 513.63981622 -313.94140625 508.77734375 C-321.5331732 496.08630394 -327.9066112 482.14857369 -325 467 C-322.85492989 464.28754786 -321.19735067 462.50747089 -318 461.15234375 C-283.09641384 457.40293508 -238.28980204 500.30838618 -212.5 519.9375 C-211.61602539 520.60966553 -210.73205078 521.28183105 -209.82128906 521.97436523 C-205.61348763 525.18820696 -201.44124465 528.43334943 -197.3359375 531.77734375 C-184.35678383 542.2997996 -171.05085582 550.47833903 -155 555.4375 C-154.27893066 555.66050781 -153.55786133 555.88351562 -152.81494141 556.11328125 C-138.17187039 560.22718111 -123.32462455 561.46816448 -108.17871094 561.28125 C-105.57733103 561.24941667 -102.97655766 561.2401907 -100.375 561.234375 C-98.70051342 561.22522644 -97.02603296 561.21485763 -95.3515625 561.203125 C-94.58389557 561.19887512 -93.81622864 561.19462524 -93.02529907 561.19024658 C-89.23378993 561.13959047 -85.68742669 560.90843047 -82 560 C-85.22997531 557.40276239 -88.48519969 554.84088596 -91.75683594 552.29638672 C-102.88340957 543.62264599 -113.58665114 534.5207761 -124 525 C-125.06360431 524.04144717 -126.127418 523.08312664 -127.19140625 522.125 C-133.87983484 516.06869463 -140.05946158 509.80287464 -146 503 C-147.68504512 501.16441009 -149.3726158 499.33113592 -151.0625 497.5 C-155.60738908 492.49575 -159.84715378 487.33135664 -164 482 C-165.06210825 480.65594034 -166.12464469 479.31221898 -167.1875 477.96875 C-175.14111169 467.8762122 -182.71119817 457.5810634 -190 447 C-190.47663086 446.30986816 -190.95326172 445.61973633 -191.44433594 444.90869141 C-197.0344288 436.8051216 -202.55869147 428.65705582 -208.0703125 420.5 C-231.13181907 386.37297736 -254.50150557 353.58472035 -283.5625 324.25 C-284.42488281 323.37448486 -285.28726562 322.49896973 -286.17578125 321.59692383 C-292.13664358 315.62872331 -298.41345233 310.26181593 -305 305 C-306.02735478 304.13637942 -307.05075766 303.26798256 -308.06640625 302.390625 C-363.1714438 255.13309671 -447.19671612 218.4283172 -520.8125 228.3125 Z M-153.4375 260.23828125 C-156.40471531 263.58381651 -158 265.49288053 -158 270.0625 C-156.55358724 274.31133748 -154.00625271 275.72543945 -150.33984375 278.0546875 C-146.94882543 279.42468154 -143.48367382 279.56521214 -139.875 279.875 C-131.06228799 280.77574681 -122.42724819 282.38911615 -116 289 C-111.4534327 295.15276202 -109.6050343 299.84420686 -110.4375 307.5625 C-112.3044374 329.88422413 -112.3044374 329.88422413 -103.875 350.1875 C-94.57660163 360.00730389 -82.68721993 368.35550962 -69 370 C-68.35417969 370.09410156 -67.70835937 370.18820312 -67.04296875 370.28515625 C-56.41064245 371.07800659 -43.30239163 366.43858943 -35 360 C-32.27388871 355.91083307 -32.41396077 352.80130832 -33 348 C-33.93441771 344.86817566 -35.2767722 342.03704308 -36.75 339.125 C-37.14832031 338.31345459 -37.54664063 337.50190918 -37.95703125 336.66577148 C-44.86403384 322.94813695 -53.38783775 309.96954919 -63 298 C-63.41040527 297.48808105 -63.82081055 296.97616211 -64.24365234 296.44873047 C-81.23689271 275.40674362 -100.84512693 255.59544921 -128.9375 252.125 C-138.45929454 251.55690331 -146.56478316 253.40851889 -153.4375 260.23828125 Z M-151 301 C-152.68600223 303.91218567 -153.00767408 305.63164419 -152.9375 309 C-151.71720978 312.90492871 -150.24962741 314.5274574 -147 317 C-143.59471004 318.24838381 -143.59471004 318.24838381 -140 318 C-136.25330759 316.02061533 -134.35322631 314.52983947 -132 311 C-131.41929473 305.18051663 -131.41929473 305.18051663 -133.875 300.0625 C-137.12852014 296.90467162 -139.42690815 296.65286346 -143.96484375 296.71875 C-147.22946589 297.16990699 -148.81185064 298.61877864 -151 301 Z " fill="#4F6AFD" transform="translate(604,0)"/>
<path d="M0 0 C16.5 0 33 0 50 0 C49.67 0.66 49.34 1.32 49 2 C47.00390625 2.5625 47.00390625 2.5625 44.5625 3 C40.86159602 3.62251162 40.86159602 3.62251162 38 6 C35.8359375 6.1953125 35.8359375 6.1953125 33.375 6.125 C32.55773437 6.10695313 31.74046875 6.08890625 30.8984375 6.0703125 C30.27195312 6.04710937 29.64546875 6.02390625 29 6 C29 5.01 29 4.02 29 3 C28.34386719 3.16628906 27.68773437 3.33257813 27.01171875 3.50390625 C22.55331866 4.238299 18.11896627 4.00527684 13.61914062 3.87304688 C11.74584999 3.84342274 9.8715881 3.91483339 8 4 C7.34 4.66 6.68 5.32 6 6 C2.875 5.625 2.875 5.625 0 5 C0 3.35 0 1.7 0 0 Z " fill="#576CDE" transform="translate(470,560)"/>
<path d="M0 0 C0 0.66 0 1.32 0 2 C-3.8328966 3.86169263 -5.89553387 4.02611653 -10 3 C-10.33 3.33 -10.66 3.66 -11 4 C-16.11272608 4.32191238 -20.99874362 4.12931596 -26 3 C-26.33 3.33 -26.66 3.66 -27 4 C-29.35694954 3.90968426 -31.71153582 3.75311872 -34.0625 3.5625 C-35.35285156 3.46066406 -36.64320313 3.35882813 -37.97265625 3.25390625 C-39.47119141 3.12822266 -39.47119141 3.12822266 -41 3 C-41 2.67 -41 2.34 -41 2 C-27.33050435 -0.28164458 -13.82610232 -0.2149992 0 0 Z " fill="#556AE4" transform="translate(792,88)"/>
<path d="M0 0 C-2.25529498 2.79568351 -3.37737578 3.91151755 -6.99609375 4.42578125 C-8.13175781 4.38839844 -9.26742187 4.35101563 -10.4375 4.3125 C-11.66597656 4.27769531 -12.89445312 4.24289063 -14.16015625 4.20703125 C-19.78350453 3.90383953 -25.39258093 3.52162038 -31 3 C-31 2.67 -31 2.34 -31 2 C-20.58696894 0.58806359 -10.52670777 -0.30028643 0 0 Z " fill="#5469E3" transform="translate(232,40)"/>
<path d="M0 0 C4.51617599 -0.07654536 8.59085217 -0.10228696 13 1 C12.67 2.65 12.34 4.3 12 6 C10.37585622 6.19477739 8.75063577 6.38059458 7.125 6.5625 C6.22007812 6.66691406 5.31515625 6.77132813 4.3828125 6.87890625 C2 7 2 7 0 6 C0 4.02 0 2.04 0 0 Z " fill="#5069E9" transform="translate(436,16)"/>
<path d="M0 0 C0.33 0.66 0.66 1.32 1 2 C-7.70694636 7.15967192 -16.20272795 6.38047658 -26 6 C-26.33 6.99 -26.66 7.98 -27 9 C-27.99 9 -28.98 9 -30 9 C-30.33 7.02 -30.66 5.04 -31 3 C-29.2984375 3.2475 -29.2984375 3.2475 -27.5625 3.5 C-17.49343204 4.67736048 -9.63576524 3.07028651 0 0 Z " fill="#556BE3" transform="translate(558,365)"/>
<path d="M0 0 C6.75 0.875 6.75 0.875 9 2 C10.6675718 1.67122474 12.33405209 1.33690718 14 1 C16.26995419 0.93347145 18.54168695 0.91456249 20.8125 0.9375 C21.97394531 0.94652344 23.13539063 0.95554687 24.33203125 0.96484375 C25.21246094 0.97644531 26.09289062 0.98804688 27 1 C27 1.33 27 1.66 27 2 C17.95960217 3.27041977 9.15564771 4.34915606 0 4 C0 2.68 0 1.36 0 0 Z " fill="#566BE1" transform="translate(374,628)"/>
<path d="M0 0 C-0.33 0.99 -0.66 1.98 -1 3 C-1.99580078 3.09087891 -1.99580078 3.09087891 -3.01171875 3.18359375 C-9.54908081 3.79863507 -9.54908081 3.79863507 -16 5 C-16 4.34 -16 3.68 -16 3 C-17.98 3 -19.96 3 -22 3 C-22 2.67 -22 2.34 -22 2 C-14.58856436 0.57374434 -7.55137932 -0.30071865 0 0 Z " fill="#596BDF" transform="translate(420,16)"/>
<path d="M0 0 C1.85625 0.061875 1.85625 0.061875 3.75 0.125 C3.75 1.445 3.75 2.765 3.75 4.125 C6.06 4.125 8.37 4.125 10.75 4.125 C10.75 4.785 10.75 5.445 10.75 6.125 C4.17465139 5.50468409 -1.91692592 3.97602717 -8.25 2.125 C-5.3504339 0.46623921 -3.33364791 -0.1111216 0 0 Z " fill="#556AD8" transform="translate(253.25,619.875)"/>
<path d="M0 0 C7.42686315 -0.10331031 14.63512596 0.00137301 22 1 C22 1.33 22 1.66 22 2 C19.64640498 2.22415191 17.29351589 2.42959058 14.9375 2.625 C13.62652344 2.74101563 12.31554687 2.85703125 10.96484375 2.9765625 C6.74037732 3.00153472 3.95413841 2.3471837 0 1 C0 0.67 0 0.34 0 0 Z " fill="#596BE1" transform="translate(272,40)"/>
<path d="M0 0 C0.33 0 0.66 0 1 0 C0.125 6.75 0.125 6.75 -1 9 C-0.34 9.33 0.32 9.66 1 10 C0.38125 10.165 -0.2375 10.33 -0.875 10.5 C-3.84778975 12.59843982 -3.89268353 14.75157134 -4.5078125 18.22265625 C-4.67023437 18.80917969 -4.83265625 19.39570313 -5 20 C-5.66 20.33 -6.32 20.66 -7 21 C-5.180206 13.74839665 -2.93841629 6.87619244 0 0 Z " fill="#566AE4" transform="translate(20,187)"/>
<path d="M0 0 C0.99 0.495 0.99 0.495 2 1 C2.60265805 3.14534731 3.10952625 5.3181369 3.5625 7.5 C4.10668442 11.5695459 4.10668442 11.5695459 6 15 C6.14115161 17.67058851 6.04247107 20.32432238 6 23 C4.23814696 20.35722044 3.61561418 19.05132516 2.9296875 16.09375 C2.66865234 14.97806641 2.66865234 14.97806641 2.40234375 13.83984375 C2.14130859 12.68162109 2.14130859 12.68162109 1.875 11.5 C1.60236328 10.34177734 1.60236328 10.34177734 1.32421875 9.16015625 C0.60729959 6.04991296 0 3.20218305 0 0 Z " fill="#5368DD" transform="translate(7,364)"/>
<path d="M0 0 C0.33 0 0.66 0 1 0 C1.66 5.28 2.32 10.56 3 16 C1.68 15.67 0.36 15.34 -1 15 C-1.09038099 9.84828377 -0.84681133 5.08086796 0 0 Z " fill="#576DD3" transform="translate(61,290)"/>
<path d="M0 0 C0.99 0 1.98 0 3 0 C2.40165275 4.14298667 0.99335715 7.18194377 -1.0625 10.8125 C-1.61035156 11.78832031 -2.15820312 12.76414062 -2.72265625 13.76953125 C-3.14417969 14.50558594 -3.56570313 15.24164063 -4 16 C-5 14 -5 14 -4.25 11.375 C-2.84407387 7.57899946 -1.43564583 3.78488445 0 0 Z " fill="#506DE5" transform="translate(680,393)"/>
<path d="M0 0 C1.258125 -0.020625 2.51625 -0.04125 3.8125 -0.0625 C4.52019531 -0.07410156 5.22789062 -0.08570313 5.95703125 -0.09765625 C8 0 8 0 11 1 C11 1.66 11 2.32 11 3 C7.37 3.33 3.74 3.66 0 4 C0 2.68 0 1.36 0 0 Z " fill="#596FCF" transform="translate(436,16)"/>
<path d="M0 0 C0.66 0.33 1.32 0.66 2 1 C1.54625 1.4125 1.0925 1.825 0.625 2.25 C-1.0685142 3.88959515 -1.0685142 3.88959515 -1.85546875 5.875 C-3.21305654 8.39557255 -4.78377922 9.87301429 -6.9375 11.75 C-7.62714844 12.36359375 -8.31679687 12.9771875 -9.02734375 13.609375 C-11 15 -11 15 -14 15 C-13.49210937 14.50371094 -12.98421875 14.00742188 -12.4609375 13.49609375 C-8.07156726 9.16426208 -3.94791282 4.73749539 0 0 Z " fill="#5564EE" transform="translate(77,103)"/>
<path d="M0 0 C0.33 0 0.66 0 1 0 C2.35802469 7.28395062 2.35802469 7.28395062 0.6875 10.625 C-0.1478125 11.800625 -0.1478125 11.800625 -1 13 C-1.71143088 14.98451771 -2.38991336 16.98202112 -3 19 C-4.67641098 14.90913548 -3.2409319 11.28488982 -2.0625 7.25 C-1.86720703 6.55261719 -1.67191406 5.85523438 -1.47070312 5.13671875 C-0.9891754 3.42201027 -0.49574843 1.71065123 0 0 Z " fill="#566BE6" transform="translate(10,215)"/>
<path d="M0 0 C0.33 0 0.66 0 1 0 C2.04167441 4.09725269 1.94409525 7.61495224 1.5625 11.8125 C1.46066406 12.97394531 1.35882813 14.13539063 1.25390625 15.33203125 C1.17011719 16.21246094 1.08632813 17.09289062 1 18 C0.67 18 0.34 18 0 18 C-0.19620767 15.93831015 -0.38160753 13.87559002 -0.5625 11.8125 C-0.66691406 10.66394531 -0.77132813 9.51539063 -0.87890625 8.33203125 C-0.98859985 5.31368801 -0.74002389 2.91076064 0 0 Z " fill="#5270D6" transform="translate(493,297)"/>
<path d="M0 0 C1.98 0 3.96 0 6 0 C6 0.99 6 1.98 6 3 C6.66 3 7.32 3 8 3 C8 3.66 8 4.32 8 5 C4.7 4.34 1.4 3.68 -2 3 C-1.34 2.67 -0.68 2.34 0 2 C0 1.34 0 0.68 0 0 Z " fill="#5170D7" transform="translate(554,571)"/>
<path d="M0 0 C1.98567708 0.5859375 3.97135417 1.171875 5.95703125 1.7578125 C2.13185612 4.14854695 -1.63962399 4.31747802 -6.04296875 4.7578125 C-4.92142695 1.39318711 -3.83642022 -0.45479551 0 0 Z " fill="#5369DF" transform="translate(432.04296875,619.2421875)"/>
<path d="M0 0 C2.25 0.125 2.25 0.125 5 1 C7.3125 4.0625 7.3125 4.0625 9 7 C2.25 5.25 2.25 5.25 0 3 C0 2.01 0 1.02 0 0 Z " fill="#516FDE" transform="translate(682,84)"/>
<path d="M0 0 C0 0.66 0 1.32 0 2 C1.98 2 3.96 2 6 2 C6 2.66 6 3.32 6 4 C-2.57142857 4.28571429 -2.57142857 4.28571429 -6 2 C-2.25 0 -2.25 0 0 0 Z " fill="#556DE2" transform="translate(294,628)"/>
<path d="M0 0 C0.66 0 1.32 0 2 0 C2.66 1.98 3.32 3.96 4 6 C0.08788267 4.84414715 -2.8745041 3.64465038 -6 1 C-3.03 1.495 -3.03 1.495 0 2 C0 1.34 0 0.68 0 0 Z " fill="#516EE3" transform="translate(204,602)"/>
<path d="M0 0 C0 1.32 0 2.64 0 4 C-0.99 4 -1.98 4 -3 4 C-3 3.01 -3 2.02 -3 1 C-3.598125 1.495 -4.19625 1.99 -4.8125 2.5 C-7 4 -7 4 -10 4 C-10 3.01 -10 2.02 -10 1 C-6.61981469 -0.04005702 -3.5219721 -0.08004482 0 0 Z " fill="#516DEA" transform="translate(420,18)"/>
<path d="M0 0 C2.64 0.33 5.28 0.66 8 1 C7.01 1.33 6.02 1.66 5 2 C4.26676204 4.01508358 4.26676204 4.01508358 4 6 C3.01 6 2.02 6 1 6 C0.67 4.02 0.34 2.04 0 0 Z " fill="#5267D8" transform="translate(527,368)"/>
<path d="M0 0 C1.65 0 3.3 0 5 0 C4.67 3.63 4.34 7.26 4 11 C3.67 11 3.34 11 3 11 C3 8.36 3 5.72 3 3 C2.01 2.67 1.02 2.34 0 2 C0 1.34 0 0.68 0 0 Z " fill="#566CDE" transform="translate(715,266)"/>
<path d="M0 0 C3.3 0.33 6.6 0.66 10 1 C10 1.33 10 1.66 10 2 C6.04 2.66 2.08 3.32 -2 4 C-1.34 2.68 -0.68 1.36 0 0 Z " fill="#556CE6" transform="translate(68,228)"/>
<path d="M0 0 C0.33 0.99 0.66 1.98 1 3 C1.66 3 2.32 3 3 3 C2 6 2 6 0.125 7 C-0.57625 7.33 -1.2775 7.66 -2 8 C-3.70921589 9.5412312 -3.70921589 9.5412312 -5 11 C-3.55049545 7.2089881 -1.84827434 3.6125362 0 0 Z " fill="#4D67E2" transform="translate(34,159)"/>
<path d="M0 0 C0 0.66 0 1.32 0 2 C-0.99 2 -1.98 2 -3 2 C-3.33 3.32 -3.66 4.64 -4 6 C-4.66 6 -5.32 6 -6 6 C-6 5.01 -6 4.02 -6 3 C-6.99 3.33 -7.98 3.66 -9 4 C-9 3.34 -9 2.68 -9 2 C-3.375 0 -3.375 0 0 0 Z " fill="#506CE0" transform="translate(354,32)"/>
<path d="M0 0 C0 1.65 0 3.3 0 5 C-4.455 4.01 -4.455 4.01 -9 3 C-9 2.67 -9 2.34 -9 2 C-2.25 0 -2.25 0 0 0 Z " fill="#556CE1" transform="translate(180,235)"/>
<path d="M0 0 C0.66 0 1.32 0 2 0 C2 1.65 2 3.3 2 5 C-1.63 4.34 -5.26 3.68 -9 3 C-9 2.67 -9 2.34 -9 2 C-6.03 2.33 -3.06 2.66 0 3 C0 2.01 0 1.02 0 0 Z " fill="#556EDF" transform="translate(490,251)"/>
<path d="M0 0 C2.12046792 3.53411321 2.53199289 6.94393835 3 11 C2.34 11 1.68 11 1 11 C-1.03684712 6.92630576 -1.0257259 4.41062136 0 0 Z " fill="#5166DC" transform="translate(69,327)"/>
<path d="M0 0 C0.99 0 1.98 0 3 0 C2.34 3.63 1.68 7.26 1 11 C0.67 11 0.34 11 0 11 C0 7.37 0 3.74 0 0 Z " fill="#536DE5" transform="translate(709,308)"/>
<path d="M0 0 C0 0.66 0 1.32 0 2 C-4.22949995 4.41685712 -7.12335991 5.34833144 -12 5 C-8.45976076 2.63984051 -4.36489861 0 0 0 Z " fill="#536BE6" transform="translate(156,54)"/>
<path d="M0 0 C0.66 0.33 1.32 0.66 2 1 C1.3125 3.4375 1.3125 3.4375 0 6 C-2.625 6.8125 -2.625 6.8125 -5 7 C-4.67 6.01 -4.34 5.02 -4 4 C-1.9375 3.3125 -1.9375 3.3125 0 3 C0 2.01 0 1.02 0 0 Z " fill="#5366E9" transform="translate(459,25)"/>
<path d="M0 0 C2.475 0.99 2.475 0.99 5 2 C4.67 2.99 4.34 3.98 4 5 C3.34 5 2.68 5 2 5 C1.67 5.66 1.34 6.32 1 7 C0.67 4.69 0.34 2.38 0 0 Z " fill="#506EE6" transform="translate(577,112)"/>
<path d="M0 0 C0.99 0.33 1.98 0.66 3 1 C3 1.66 3 2.32 3 3 C2.195625 3.12375 1.39125 3.2475 0.5625 3.375 C-0.7059375 3.684375 -0.7059375 3.684375 -2 4 C-2.33 4.66 -2.66 5.32 -3 6 C-4.32 5.67 -5.64 5.34 -7 5 C-5.90554162 4.13342884 -4.79902219 3.28207276 -3.6875 2.4375 C-3.07261719 1.96183594 -2.45773438 1.48617187 -1.82421875 0.99609375 C-1.22222656 0.66738281 -0.62023437 0.33867188 0 0 Z " fill="#546AED" transform="translate(109,77)"/>
<path d="M0 0 C3.3 0 6.6 0 10 0 C9.67 0.99 9.34 1.98 9 3 C5.625 3.1875 5.625 3.1875 2 3 C1.34 2.01 0.68 1.02 0 0 Z " fill="#5B6FCF" transform="translate(410,16)"/>
<path d="M0 0 C0.66 0 1.32 0 2 0 C2 0.66 2 1.32 2 2 C2.66 2.33 3.32 2.66 4 3 C1.09399739 4.25664978 -0.79604584 5 -4 5 C-4 4.34 -4 3.68 -4 3 C-3.01 3 -2.02 3 -1 3 C-0.67 2.01 -0.34 1.02 0 0 Z " fill="#4C69D6" transform="translate(666,571)"/>
<path d="M0 0 C2.475 0.99 2.475 0.99 5 2 C4.67 2.99 4.34 3.98 4 5 C3.01 5.33 2.02 5.66 1 6 C0.67 4.02 0.34 2.04 0 0 Z " fill="#506EE7" transform="translate(17,400)"/>
<path d="M0 0 C0.66 0 1.32 0 2 0 C2.33 3.3 2.66 6.6 3 10 C1.68 9.34 0.36 8.68 -1 8 C-0.67 5.36 -0.34 2.72 0 0 Z " fill="#596BDF" transform="translate(445,264)"/>
<path d="M0 0 C0 0.66 0 1.32 0 2 C-1.65 2.66 -3.3 3.32 -5 4 C-5.99 3.01 -6.98 2.02 -8 1 C-5.29120665 -0.35439668 -2.99066732 -0.06501451 0 0 Z " fill="#556BDF" transform="translate(792,88)"/>
<path d="M0 0 C3.96 1.98 3.96 1.98 8 4 C7.01 4.33 6.02 4.66 5 5 C5 5.66 5 6.32 5 7 C4.34 7 3.68 7 3 7 C3 5.68 3 4.36 3 3 C2.01 2.67 1.02 2.34 0 2 C0 1.34 0 0.68 0 0 Z " fill="#4F68E0" transform="translate(423,543)"/>
<path d="M0 0 C2.97 0.33 5.94 0.66 9 1 C8.67 1.66 8.34 2.32 8 3 C5.36 3 2.72 3 0 3 C0 2.01 0 1.02 0 0 Z " fill="#586BE1" transform="translate(468,280)"/>
<path d="M0 0 C0.33 0.66 0.66 1.32 1 2 C1.66 2 2.32 2 3 2 C3 3.32 3 4.64 3 6 C1.68 6 0.36 6 -1 6 C-0.67 4.02 -0.34 2.04 0 0 Z " fill="#556CE6" transform="translate(297,524)"/>
<path d="M0 0 C0.66 0 1.32 0 2 0 C1.34 2.97 0.68 5.94 0 9 C-0.33 9 -0.66 9 -1 9 C-1.09765625 2.84765625 -1.09765625 2.84765625 -1 1 C-0.67 0.67 -0.34 0.34 0 0 Z " fill="#586BE4" transform="translate(702,338)"/>
<path d="M0 0 C0.66 0 1.32 0 2 0 C1.67 2.64 1.34 5.28 1 8 C-1 6 -1 6 -1.1875 3.4375 C-1 1 -1 1 0 0 Z " fill="#546CE6" transform="translate(854,102)"/>
<path d="M0 0 C4.75 0.875 4.75 0.875 7 2 C7 2.66 7 3.32 7 4 C5.35 4 3.7 4 2 4 C2 3.01 2 2.02 2 1 C1.34 0.67 0.68 0.34 0 0 Z " fill="#4F6CEB" transform="translate(600,0)"/>
</svg>
