<?xml version="1.0" encoding="UTF-8"?>
<svg version="1.1" xmlns="http://www.w3.org/2000/svg" width="250" height="94">
<path d="M0 0 C0 3.75870967 -1.12906928 4.93445308 -3.25 8 C-9.68682415 17.95614467 -11.68644699 25.27015888 -10 37 C-8.45055607 49.70221218 -9.54332676 59.24391382 -17 70 C-23.32690878 77.05894781 -31.26383291 81.63627215 -40.7578125 82.23828125 C-56.90339223 82.64307598 -56.90339223 82.64307598 -64 78 C-64.66 77.01 -65.32 76.02 -66 75 C-60.48853555 70.57551882 -56.00019639 69.68620695 -49.0625 70.4375 C-42.15840533 71.14047984 -36.89560882 70.97029008 -31 67 C-25.31076864 62.10033877 -21.47592087 56.27104818 -20.79296875 48.70703125 C-20.71318949 44.37719308 -21.12819595 40.25004472 -22 36 C-28.53897204 38.36326979 -33.52800749 42.14441474 -39 46.375 C-40.7286455 47.69599477 -42.45780262 49.01632035 -44.1875 50.3359375 C-45.00347656 50.96081055 -45.81945312 51.58568359 -46.66015625 52.22949219 C-49.72939048 54.55191358 -52.8526586 56.78488744 -56 59 C-56.66 58.67 -57.32 58.34 -58 58 C-38.86 38.86 -19.72 19.72 0 0 Z " fill="#000000" transform="translate(95,1)"/>
<path d="M0 0 C2.753791 2.58829875 4.10908591 5.05337395 5.625 8.52734375 C5.625 9.84734375 5.625 11.16734375 5.625 12.52734375 C2.55201479 12.88191897 -0.31661807 13.05739261 -3.375 12.52734375 C-5.6875 9.65234375 -5.6875 9.65234375 -7.375 6.52734375 C-10.79010269 3.93657619 -14.20672404 4.16800962 -18.375 4.52734375 C-22.12851295 5.82663669 -23.88846561 6.83948478 -26.1875 10.08984375 C-28.54519168 16.91474072 -29.29921048 23.10740482 -26.3359375 29.8359375 C-24.58330461 32.92085637 -22.5301935 34.949747 -19.375 36.52734375 C-13.86501944 36.89467579 -10.01821357 36.87477679 -5.375 33.52734375 C-4.01819408 31.2233337 -3.24317201 29.08362801 -2.375 26.52734375 C-9.305 26.03234375 -9.305 26.03234375 -16.375 25.52734375 C-16.375 23.21734375 -16.375 20.90734375 -16.375 18.52734375 C-8.785 18.52734375 -1.195 18.52734375 6.625 18.52734375 C6.625 34.2332261 6.625 34.2332261 2.23046875 39.05859375 C-3.56041114 44.10179042 -8.84982515 45.4278921 -16.375 45.52734375 C-23.45061306 44.81412195 -28.48455893 42.41778482 -33.5625 37.33984375 C-37.89178045 30.62199477 -39.41535425 23.44822269 -38.375 15.52734375 C-36.88681977 9.02541346 -34.84261166 3.69898257 -29.34375 -0.3203125 C-20.14509464 -5.70444609 -8.94409798 -6.42857042 0 0 Z " fill="#000000" transform="translate(145.375,26.47265625)"/>
<path d="M0 0 C1.12172607 0.00132935 1.12172607 0.00132935 2.26611328 0.00268555 C8.99415426 0.14603663 15.4239579 1.27808524 20.5078125 6.01171875 C20.91773437 6.46160156 21.32765625 6.91148438 21.75 7.375 C15.69282978 10.89717745 11.83512926 13.08067927 4.75 11.375 C-3.06294449 10.87093906 -9.77754749 12.13391544 -16.0625 17.0625 C-21.56801741 22.18480274 -24.00792169 28.74382535 -24.5 36.125 C-24.39267982 43.34228229 -21.25358777 48.53505586 -17.25 54.375 C-30.30586592 66.49546089 -30.30586592 66.49546089 -36.328125 71.70703125 C-40.00017722 74.89395462 -43.62021243 78.14011988 -47.25 81.375 C-47.58 80.715 -47.91 80.055 -48.25 79.375 C-47.82589844 78.90191406 -47.40179688 78.42882812 -46.96484375 77.94140625 C-45.0389951 75.77006481 -43.14243964 73.57551121 -41.25 71.375 C-40.60546875 70.6428125 -39.9609375 69.910625 -39.296875 69.15625 C-35.213949 64.28418705 -32.25 59.90826057 -32.25 53.375 C-32.85718502 50.93361023 -33.67193595 48.61466449 -34.49609375 46.23828125 C-37.00600762 36.70581042 -36.13370665 25.97713209 -31.25 17.375 C-23.2079541 6.36261101 -13.86557268 -0.02944846 0 0 Z " fill="#000000" transform="translate(49.25,11.625)"/>
<path d="M0 0 C2.64 0 5.28 0 8 0 C8.33 9.24 8.66 18.48 9 28 C10.77375 26.081875 12.5475 24.16375 14.375 22.1875 C14.93106934 21.58832764 15.48713867 20.98915527 16.06005859 20.37182617 C18.24947967 17.99349664 20.20329893 15.69505161 22 13 C24.3828125 12.70703125 24.3828125 12.70703125 27.125 12.8125 C28.03507812 12.83957031 28.94515625 12.86664063 29.8828125 12.89453125 C30.58148438 12.92933594 31.28015625 12.96414062 32 13 C30.38462556 16.89917968 27.72075127 19.71293772 24.875 22.75 C24.40707031 23.25660156 23.93914062 23.76320313 23.45703125 24.28515625 C22.30873459 25.52719141 21.15491328 26.76411494 20 28 C22.16896727 32.93054854 25.71051335 36.90945709 29.00390625 41.125 C30.72193469 43.59949889 31.59893364 45.07291922 32 48 C28.80670376 48.66527005 26.17707417 48.81148179 23 48 C18.97949444 44.3732553 16.06109472 39.99025439 13.5234375 35.23046875 C12.0491607 32.54172997 12.0491607 32.54172997 8 32 C8 37.28 8 42.56 8 48 C5.36 48 2.72 48 0 48 C0 32.16 0 16.32 0 0 Z " fill="#000000" transform="translate(217,23)"/>
<path d="M0 0 C4.12924208 3.73598093 6.26871656 6.73195854 7.0078125 12.21484375 C7.25554606 18.76326746 6.56725655 24.0199894 2.625 29.375 C-2.13932119 33.85057446 -7.18704847 33.66119363 -13.42578125 33.5859375 C-17.1363842 33.32054338 -19.38970315 32.61397263 -22.375 30.375 C-27.58906545 23.61080698 -28.14139573 17.70820432 -27.375 9.375 C-25.70908113 4.00598146 -22.24481042 1.01281398 -17.375 -1.625 C-11.5404687 -3.52545937 -5.44084753 -2.61966733 0 0 Z M-16.375 7.375 C-19.00987015 11.62479056 -19.71220353 14.1926967 -18.8125 19.125 C-18.04479029 21.85618544 -17.48004068 23.25120206 -15.625 25.4375 C-12.55588602 26.71629749 -10.67301106 26.91345078 -7.375 26.375 C-3.91367339 23.83669382 -2.59702202 22.12432433 -1.375 18 C-1.375 13.6460126 -2.20292426 11.13993128 -4.375 7.375 C-9.21667216 3.71422349 -11.53332784 3.71422349 -16.375 7.375 Z " fill="#000000" transform="translate(205.375,37.625)"/>
<path d="M0 0 C0.68835938 0.02255859 1.37671875 0.04511719 2.0859375 0.06835938 C3.76658245 0.1267151 5.44609153 0.21637929 7.125 0.3125 C7.125 2.6225 7.125 4.9325 7.125 7.3125 C3.165 7.3125 -0.795 7.3125 -4.875 7.3125 C-4.875 16.5525 -4.875 25.7925 -4.875 35.3125 C-7.845 35.3125 -10.815 35.3125 -13.875 35.3125 C-14.02383585 31.13173925 -14.13243418 26.95239863 -14.20458984 22.76977539 C-14.23467954 21.3486036 -14.27556404 19.92761628 -14.32763672 18.50708008 C-14.74031509 6.95613156 -14.74031509 6.95613156 -12.78955078 3.25073242 C-9.13734559 -0.22447465 -4.74480745 -0.29884931 0 0 Z " fill="#000000" transform="translate(170.875,35.6875)"/>
</svg>
