<?xml version="1.0" encoding="UTF-8"?>
<svg version="1.1" xmlns="http://www.w3.org/2000/svg" width="860" height="570">
<path d="M0 0 C1.1919548 0.00323273 1.1919548 0.00323273 2.4079895 0.00653076 C53.30718858 0.22786778 97.69287275 22.00305092 134.85546875 55.9765625 C136.28460291 57.26948569 137.72034108 58.55559686 139.18188477 59.81176758 C144.69945487 64.55634145 149.86794546 69.59337058 155 74.75 C155.81146484 75.55759766 156.62292969 76.36519531 157.45898438 77.19726562 C162.32731628 82.07345601 166.96195613 87.07544769 171.4375 92.3125 C172.50663902 93.53878451 173.57693662 94.76405995 174.6484375 95.98828125 C181.04167364 103.32903133 187.33451718 110.72713893 193.4375 118.3125 C196.55281178 115.35120363 199.09019269 112.21746865 201.625 108.75 C206.04338302 102.77792994 210.66502324 97.00719449 215.4375 91.3125 C215.87400879 90.78962402 216.31051758 90.26674805 216.76025391 89.72802734 C224.96795138 79.92221735 233.59813319 70.55045894 242.4375 61.3125 C243.28441406 60.42304687 244.13132812 59.53359375 245.00390625 58.6171875 C249.58253399 53.91569855 254.44017976 49.72029328 259.56640625 45.625 C262.49420155 43.26683018 265.33601169 40.8246007 268.1875 38.375 C284.93172264 24.4963276 304.26102656 13.68236626 324.875 6.75 C325.79595459 6.43981934 326.71690918 6.12963867 327.66577148 5.81005859 C341.20034093 1.5241713 354.41149221 -0.25280775 368.5625 -0.125 C369.62984375 -0.12093643 369.62984375 -0.12093643 370.71875 -0.11679077 C383.28147918 -0.04475838 395.24002961 1.23832011 407.4375 4.3125 C408.17242676 4.48910156 408.90735352 4.66570313 409.66455078 4.84765625 C438.24126903 11.85080027 464.3151276 27.18151758 486.4375 46.3125 C487.19546875 46.95960937 487.9534375 47.60671875 488.734375 48.2734375 C500.89342537 58.92280712 512.65944241 70.42243854 522.4375 83.3125 C523.37610897 84.52228527 524.31492581 85.73190928 525.25390625 86.94140625 C536.88826075 102.05949401 546.76631042 118.09562298 556.02050781 134.76171875 C556.91776213 136.3769002 557.82012999 137.98926052 558.72949219 139.59765625 C589.44652826 194.06497795 604.017775 257.64565256 610.4375 319.3125 C610.52485413 320.14751038 610.61220825 320.98252075 610.70220947 321.84283447 C611.53036299 330.57732117 611.6189975 339.28270096 611.640625 348.046875 C611.64345238 348.8333567 611.64627975 349.61983841 611.64919281 350.43015289 C611.66408952 354.60106221 611.67337623 358.77193786 611.67773438 362.94287109 C611.68209795 366.33458335 611.69592064 369.72603822 611.71875 373.11767578 C612.09356813 429.96940283 602.25533086 490.59955557 561.4375 533.3125 C560.7775 534.04726563 560.1175 534.78203125 559.4375 535.5390625 C540.56519709 555.76959933 509.80122625 569.39337686 482.30126953 570.69824219 C476.6749275 570.86432761 471.05263566 570.87516527 465.42431641 570.83398438 C461.94232564 570.81252973 458.46239752 570.83389867 454.98046875 570.859375 C441.92733443 570.87520246 430.00220501 569.88886842 417.4375 566.3125 C416.45827827 566.04213676 416.45827827 566.04213676 415.45927429 565.76631165 C394.15425818 559.86962271 374.92342113 547.58846304 358.87890625 532.578125 C356.82512394 530.67221501 354.73432925 528.84432898 352.609375 527.01953125 C348.54297167 523.47096304 344.80160335 519.6975676 341.125 515.75 C340.47619873 515.05527588 339.82739746 514.36055176 339.15893555 513.64477539 C333.6765571 507.7038978 328.67794129 501.48446328 323.78662109 495.05566406 C322.40396316 493.26916793 320.98525435 491.51854559 319.55078125 489.7734375 C312.66258386 481.38067408 306.4469907 472.66716593 300.38671875 463.66015625 C298.17287048 460.373223 295.88393889 457.16672479 293.5 454 C277.63966093 432.42062882 264.53496924 408.58445837 250.9022522 385.55987549 C244.96556131 375.53423311 238.96192894 365.55302294 232.89633179 355.60488892 C227.17352882 346.21498219 221.53878109 336.77533913 215.9375 327.3125 C209.73898884 316.84345698 203.50020463 306.40063643 197.1875 296 C196.50880859 294.88044922 195.83011719 293.76089844 195.13085938 292.60742188 C190.98302909 285.78810768 186.75040289 279.02861663 182.4375 272.3125 C177.09104998 280.84726411 172.03154682 289.48038251 167.1875 298.3125 C165.87440999 300.69382322 164.55856099 303.07361557 163.2421875 305.453125 C162.91771637 306.04007141 162.59324524 306.62701782 162.25894165 307.23175049 C158.84866299 313.39231638 155.35522607 319.50384 151.84985352 325.6105957 C148.24575996 331.89084749 144.67945608 338.19153931 141.125 344.5 C135.23756409 354.93738075 129.26299203 365.3230452 123.26171875 375.6953125 C120.71261998 380.10108189 118.17405206 384.51264961 115.64453125 388.9296875 C88.80590267 435.76088765 59.69378733 481.9649034 22.4375 521.3125 C21.96731445 521.81136719 21.49712891 522.31023438 21.01269531 522.82421875 C13.42532319 530.81741511 5.33561168 537.81317693 -3.5625 544.3125 C-4.14870117 544.74304688 -4.73490234 545.17359375 -5.33886719 545.6171875 C-29.89144484 563.41477262 -55.97346495 570.50853137 -85.96850586 570.66259766 C-88.29250217 570.67898532 -90.61645184 570.70604018 -92.94018555 570.74462891 C-127.6405011 571.31613428 -160.83836991 562.22887822 -187.5625 539.3125 C-188.337146 538.65314453 -188.337146 538.65314453 -189.12744141 537.98046875 C-225.02629989 507.17514228 -240.310825 460.80125018 -246.5625 415.3125 C-246.68109375 414.48153809 -246.7996875 413.65057617 -246.921875 412.79443359 C-258.53935118 327.54774455 -236.47408402 233.66553788 -165.625 96.4375 C-164.2821536 94.72025404 -162.92894451 93.01102864 -161.5625 91.3125 C-160.93601562 90.508125 -160.30953125 89.70375 -159.6640625 88.875 C-157.66247503 86.32603963 -155.62213809 83.81479565 -153.5625 81.3125 C-152.93915771 80.55163086 -152.93915771 80.55163086 -152.30322266 79.77539062 C-141.02636756 66.0811901 -128.73900274 53.03801452 -114.5625 42.3125 C-114.00771973 41.88662598 -113.45293945 41.46075195 -112.88134766 41.02197266 C-79.93711839 15.80198059 -41.88187772 -0.20433649 0 0 Z M299.4375 101.3125 C298.59316406 102.04597656 297.74882813 102.77945313 296.87890625 103.53515625 C287.17876927 112.11546463 278.48813029 121.17369644 270.4375 131.3125 C269.52642428 132.42325898 268.61358448 133.53257275 267.69921875 134.640625 C256.32816458 148.50422646 246.27579045 163.33583605 236.4375 178.3125 C236.86595215 178.98547119 237.2944043 179.65844238 237.73583984 180.35180664 C240.73572619 185.06468462 243.73411331 189.77848942 246.7265625 194.49609375 C253.08824276 204.51838456 259.48154925 214.51696034 265.99853516 224.43920898 C269.05388251 229.1096676 271.98429467 233.8368408 274.83837891 238.6328125 C276.56660684 241.52884759 278.31810358 244.40985573 280.07421875 247.2890625 C287.85873873 260.06289245 295.57105575 272.87516509 303.1875 285.75 C309.9175577 297.12219609 316.76274549 308.41049822 323.76269531 319.61914062 C326.33359217 323.75356251 328.87720085 327.90464978 331.42358398 332.05419922 C338.18648921 343.07363962 345.00645607 354.05240723 351.94677734 364.9609375 C353.49020176 367.39563517 355.02125953 369.83779769 356.55078125 372.28125 C370.2761102 394.13449601 384.41565226 416.05543459 400.4375 436.3125 C401.59185547 437.78203125 401.59185547 437.78203125 402.76953125 439.28125 C404.94895135 441.99884564 407.17337708 444.66515766 409.4375 447.3125 C410.27667969 448.29863281 411.11585938 449.28476562 411.98046875 450.30078125 C424.59620427 464.78355354 439.70781728 476.04671591 459.41796875 477.6328125 C474.90390326 478.25081683 490.0984258 475.0178794 502.2734375 464.97265625 C521.38408447 447.14477873 527.45045037 419.76407346 528.56216431 394.47686768 C528.77417093 386.92280616 528.77437626 379.3689387 528.75 371.8125 C528.74817719 370.64264557 528.74635437 369.47279114 528.74447632 368.26748657 C528.69432884 349.11196608 527.97741001 330.31515361 525.4375 311.3125 C525.35028687 310.65604492 525.26307373 309.99958984 525.17321777 309.32324219 C515.27612757 235.40837721 491.21477435 146.81743531 428.99584961 98.94848633 C415.49108547 88.94371718 401.64604763 81.81805142 385.4375 77.3125 C384.4990625 77.04566406 383.560625 76.77882813 382.59375 76.50390625 C352.16687604 69.523057 322.17369545 81.4559994 299.4375 101.3125 Z M-75.625 133.5625 C-118.67042489 182.24068647 -140.17860422 247.95250219 -149.5625 311.3125 C-149.75859863 312.60913574 -149.95469727 313.90577148 -150.15673828 315.24169922 C-152.99060051 334.41422609 -153.95055345 353.43772551 -154 372.8125 C-154.0061734 373.8378183 -154.0123468 374.8631366 -154.01870728 375.91952515 C-154.08531725 393.06617272 -153.07564988 410.24219484 -147.8125 426.6875 C-147.55718506 427.50710205 -147.30187012 428.3267041 -147.03881836 429.17114258 C-141.33035811 446.80340564 -131.50715478 462.78297688 -114.6875 471.6875 C-97.87177408 479.36981133 -79.8802442 479.42146492 -62.5625 473.3125 C-53.91436184 469.53789826 -46.6669166 464.4640322 -39.5625 458.3125 C-38.77230469 457.65507812 -37.98210937 456.99765625 -37.16796875 456.3203125 C-34.27846979 453.90937945 -34.27846979 453.90937945 -31.5625 451.3125 C-31.5625 450.6525 -31.5625 449.9925 -31.5625 449.3125 C-30.5725 448.9825 -29.5825 448.6525 -28.5625 448.3125 C-25.98253839 445.88733608 -23.81704237 443.03738656 -21.5625 440.3125 C-20.87704102 439.49338135 -20.87704102 439.49338135 -20.17773438 438.65771484 C-12.06824395 428.9520958 -4.48667046 418.94373415 2.80908203 408.61474609 C4.38337599 406.38902015 5.96997216 404.17254392 7.55859375 401.95703125 C25.34115363 377.00137851 41.95931707 351.0760425 58.25 325.125 C64.94325375 314.49794302 71.68200994 303.9000885 78.4375 293.3125 C78.88786621 292.60657715 79.33823242 291.9006543 79.80224609 291.17333984 C84.30763966 284.11825877 88.88650558 277.11792081 93.546875 270.1640625 C95.33744488 267.46340959 97.08284791 264.73996289 98.8125 262 C102.48018221 256.1991601 106.28752523 250.49541983 110.10546875 244.79296875 C110.68820557 243.91777588 110.68820557 243.91777588 111.28271484 243.02490234 C112.41149269 241.3510656 113.57457121 239.70052299 114.73828125 238.05078125 C116.70113617 235.4247616 116.70113617 235.4247616 116.4375 232.3125 C117.0975 232.3125 117.7575 232.3125 118.4375 232.3125 C119.97367509 230.32511837 119.97367509 230.32511837 121.51953125 227.74609375 C122.12216797 226.78509766 122.72480469 225.82410156 123.34570312 224.83398438 C123.97412109 223.81626953 124.60253906 222.79855469 125.25 221.75 C126.48383639 219.76838397 127.71947764 217.78789044 128.95703125 215.80859375 C129.54436035 214.85968262 130.13168945 213.91077148 130.73681641 212.93310547 C132.22479523 210.64025955 133.80743113 208.54210505 135.51171875 206.41015625 C137.74444584 203.55905675 137.74444584 203.55905675 137.08203125 200.828125 C134.88468432 197.46686271 132.57702946 194.24259178 130.125 191.0625 C129.59592041 190.36793701 129.06684082 189.67337402 128.52172852 188.95776367 C127.40028339 187.48682427 126.276447 186.0177053 125.15039062 184.55029297 C123.47004293 182.35501547 121.80355726 180.14989525 120.140625 177.94140625 C110.22225391 164.80434368 99.78021117 152.25180831 88.4375 140.3125 C87.90253906 139.74885742 87.36757813 139.18521484 86.81640625 138.60449219 C65.77846031 116.60696326 38.57990014 96.14515401 6.9453125 95.07421875 C-27.67599194 94.46573133 -52.27859453 108.72431143 -75.625 133.5625 Z " fill="#0075F0" transform="translate(248.5625,-0.31250000000000006)"/>
<path d="M0 0 C0.33 0 0.66 0 1 0 C0.9285376 1.17006592 0.8570752 2.34013184 0.78344727 3.5456543 C-0.10814414 19.30410476 -0.11518727 35.03315869 -0.0625 50.8125 C-0.05747018 53.46288977 -0.05290992 56.11328048 -0.04882812 58.76367188 C-0.03795095 65.17580208 -0.02133256 71.58789649 0 78 C-1.98 78 -3.96 78 -6 78 C-6 77.34 -6 76.68 -6 76 C-5.01 76 -4.02 76 -3 76 C-3 75.34 -3 74.68 -3 74 C-3.99 74 -4.98 74 -6 74 C-6 52.88 -6 31.76 -6 10 C-4.35 9.67 -2.7 9.34 -1 9 C-0.67 6.03 -0.34 3.06 0 0 Z " fill="#1177DF" transform="translate(96,326)"/>
<path d="M0 0 C3.3 0 6.6 0 10 0 C10 0.66 10 1.32 10 2 C10.53496094 1.67644531 11.06992188 1.35289063 11.62109375 1.01953125 C14.56083058 -0.24035596 16.87103297 -0.30063581 20.0625 -0.3125 C21.10535156 -0.32925781 22.14820313 -0.34601563 23.22265625 -0.36328125 C26 0 26 0 27.87109375 1.51953125 C28.42990234 2.25236328 28.42990234 2.25236328 29 3 C29.33 2.01 29.66 1.02 30 0 C31.98 0 33.96 0 36 0 C36.495 2.97 36.495 2.97 37 6 C35.65421875 5.99214478 35.65421875 5.99214478 34.28125 5.98413086 C30.9191014 5.96698147 27.557 5.95449784 24.19482422 5.94506836 C22.74592348 5.94007215 21.29702769 5.93327291 19.84814453 5.92456055 C8.88504618 5.84007096 8.88504618 5.84007096 -2 7 C-1.34 4.69 -0.68 2.38 0 0 Z " fill="#0C56BC" transform="translate(230,90)"/>
<path d="M0 0 C0.63671875 1.828125 0.63671875 1.828125 1 4 C-0.16270083 5.46168104 -1.33993399 6.91545177 -2.60546875 8.2890625 C-4.12077186 10.14817388 -5.01466378 11.94347372 -6 14.125 C-7.74532434 17.8320689 -9.76317732 19.45678218 -13 22 C-16.39703583 26.42872819 -18.95245256 30.81793549 -21 36 C-21.66 36.99 -22.32 37.98 -23 39 C-23 40.32 -23 41.64 -23 43 C-23.6084375 43.06058594 -24.216875 43.12117188 -24.84375 43.18359375 C-27.20602397 43.82443395 -27.20602397 43.82443395 -28.34375 46.22265625 C-28.7253125 47.15980469 -29.106875 48.09695312 -29.5 49.0625 C-29.92023437 50.05378906 -30.34046875 51.04507813 -30.7734375 52.06640625 C-31.17820312 53.03449219 -31.58296875 54.00257813 -32 55 C-35.39501512 62.40402234 -35.39501512 62.40402234 -37.57421875 64.55078125 C-39.51099524 66.51939516 -39.63765142 68.3186205 -40 71 C-40.66 71 -41.32 71 -42 71 C-42.12375 71.639375 -42.2475 72.27875 -42.375 72.9375 C-42.58125 73.618125 -42.7875 74.29875 -43 75 C-43.99 75.495 -43.99 75.495 -45 76 C-42.84570114 68.80670756 -39.86403671 62.50788385 -36.25 55.9375 C-35.68506836 54.90399414 -35.12013672 53.87048828 -34.53808594 52.80566406 C-25.73021067 36.88799107 -16.27701 21.29720274 -5 7 C-3.30769179 4.68357812 -1.65230081 2.34520115 0 0 Z " fill="#085ED4" transform="translate(92,84)"/>
<path d="M0 0 C1.32 0 2.64 0 4 0 C4 22.44 4 44.88 4 68 C1.80725914 63.61451828 1.76632488 61.44306472 1.8046875 56.609375 C1.8075174 55.90476135 1.81034729 55.20014771 1.81326294 54.47418213 C1.82442199 52.2326124 1.84951807 49.99144814 1.875 47.75 C1.88503536 46.22656829 1.89416024 44.70313029 1.90234375 43.1796875 C1.92434709 39.45299414 1.95884728 35.72653667 2 32 C1.34 32 0.68 32 0 32 C0 21.44 0 10.88 0 0 Z " fill="#2171C5" transform="translate(92,336)"/>
<path d="M0 0 C0.66 0.33 1.32 0.66 2 1 C-1.3618226 5.25171681 -4.74828319 8.6381774 -9 12 C-9.99 11.34 -10.98 10.68 -12 10 C-12.33 10.99 -12.66 11.98 -13 13 C-15.00390625 14.578125 -15.00390625 14.578125 -17.5625 16.25 C-21.7820907 19.08720691 -25.52554754 22.11998766 -29.2109375 25.6171875 C-31.14958987 27.11562187 -32.60588783 27.58867676 -35 28 C-33.35808908 26.30335872 -31.69236546 24.64599929 -30 23 C-29.35289063 22.36835937 -28.70578125 21.73671875 -28.0390625 21.0859375 C-19.46679833 13.04029707 -9.76267686 6.50845124 0 0 Z " fill="#035ED5" transform="translate(155,27)"/>
<path d="M0 0 C1.93681161 -0.08107583 3.8745934 -0.13922475 5.8125 -0.1875 C6.89144531 -0.22230469 7.97039062 -0.25710937 9.08203125 -0.29296875 C12 0 12 0 13.88671875 1.51171875 C14.25410156 2.00285156 14.62148438 2.49398437 15 3 C15.33 2.01 15.66 1.02 16 0 C17.98 0 19.96 0 22 0 C22.33 1.98 22.66 3.96 23 6 C17.555 5.505 17.555 5.505 12 5 C12 4.34 12 3.68 12 3 C8.04 3 4.08 3 0 3 C0 2.01 0 1.02 0 0 Z " fill="#0A61CD" transform="translate(244,90)"/>
<path d="M0 0 C3.3 0.33 6.6 0.66 10 1 C10 1.66 10 2.32 10 3 C11.32 3.33 12.64 3.66 14 4 C14.33 3.34 14.66 2.68 15 2 C18 5.75 18 5.75 18 8 C18.66 8 19.32 8 20 8 C20 8.66 20 9.32 20 10 C21.175625 10.37125 21.175625 10.37125 22.375 10.75 C25.3916501 12.18650005 25.71565565 13.04720831 27 16 C26.3915625 15.5875 25.783125 15.175 25.15625 14.75 C17.09992195 9.44230152 8.6761937 5.19113498 0 1 C0 0.67 0 0.34 0 0 Z " fill="#065ED3" transform="translate(284,101)"/>
<path d="M0 0 C6.38063298 1.91475555 12.14517871 4.3975922 18 7.5625 C18.76183594 7.96146484 19.52367187 8.36042969 20.30859375 8.77148438 C25.87036949 11.74073898 25.87036949 11.74073898 27 14 C26.01 14.33 25.02 14.66 24 15 C23.01 14.34 22.02 13.68 21 13 C21 12.34 21 11.68 21 11 C20.113125 10.71125 19.22625 10.4225 18.3125 10.125 C15 9 15 9 12.3125 7.8125 C9.89030325 6.69610807 9.89030325 6.69610807 7 8 C6.67 7.01 6.34 6.02 6 5 C5.34 5 4.68 5 4 5 C2.61767557 3.37373596 1.28062485 1.7074998 0 0 Z " fill="#0A60D0" transform="translate(317,13)"/>
<path d="M0 0 C0.66 0 1.32 0 2 0 C3.75135622 6.12974677 5.46978593 12.32553517 3 18.5 C2.67 18.995 2.34 19.49 2 20 C1.67 20 1.34 20 1 20 C0.11722245 15.48184719 -0.10589503 11.22487306 -0.0625 6.625 C-0.05347656 5.37976563 -0.04445313 4.13453125 -0.03515625 2.8515625 C-0.02355469 1.91054688 -0.01195312 0.96953125 0 0 Z " fill="#147ADF" transform="translate(776,330)"/>
<path d="M0 0 C0.66 0.33 1.32 0.66 2 1 C2 2.65 2 4.3 2 6 C2.66 6 3.32 6 4 6 C3.67 6.99 3.34 7.98 3 9 C2.36320312 9.12375 1.72640625 9.2475 1.0703125 9.375 C0.38710938 9.58125 -0.29609375 9.7875 -1 10 C-2.28630378 12.27499876 -2.28630378 12.27499876 -3.125 15 C-4.81132075 19.90566038 -4.81132075 19.90566038 -7 21 C-5.180206 13.74839665 -2.93841629 6.87619244 0 0 Z " fill="#0762D3" transform="translate(34,188)"/>
<path d="M0 0 C-1 3 -1 3 -2.7421875 4.0625 C-3.44601563 4.371875 -4.14984375 4.68125 -4.875 5 C-7.19916335 6.02914982 -8.7694824 6.75156652 -10.5078125 8.625 C-12 10 -12 10 -16 10 C-18.00401011 10.30830925 -20.00511766 10.63729412 -22 11 C-18.04760898 7.54452468 -14.04545121 5.38923886 -9.3125 3.25 C-8.29833008 2.77626953 -8.29833008 2.77626953 -7.26367188 2.29296875 C-2.27572037 0 -2.27572037 0 0 0 Z " fill="#055ECF" transform="translate(186,12)"/>
<path d="M0 0 C0.66 0.66 1.32 1.32 2 2 C1.46375 2.495 0.9275 2.99 0.375 3.5 C-1.62428157 5.60450691 -3.24567557 7.65680131 -4.9375 10 C-7.30320824 13.22651302 -9.70562302 15.67455743 -13 18 C-13.66 17.67 -14.32 17.34 -15 17 C-13.06402271 14.72785301 -11.12628828 12.45724637 -9.1875 10.1875 C-8.64029297 9.54490234 -8.09308594 8.90230469 -7.52929688 8.24023438 C-6.73168945 7.30727539 -6.73168945 7.30727539 -5.91796875 6.35546875 C-5.43094482 5.78465576 -4.9439209 5.21384277 -4.44213867 4.62573242 C-3.01735855 3.01956841 -1.53368638 1.50185891 0 0 Z " fill="#055CD1" transform="translate(110,64)"/>
<path d="M0 0 C1.125 3.75 1.125 3.75 0 6 C0.33 6.99 0.66 7.98 1 9 C0.13375 9.7115625 0.13375 9.7115625 -0.75 10.4375 C-3.38930406 13.44337407 -4.60892795 16.3845247 -6.0703125 20.07421875 C-7 22 -7 22 -9 23 C-6.54234965 15.08090444 -3.33181427 7.58014704 0 0 Z " fill="#0861D6" transform="translate(44,164)"/>
<path d="M0 0 C0.433125 0.9590625 0.433125 0.9590625 0.875 1.9375 C1.82823451 4.15206079 1.82823451 4.15206079 4 5 C0.57894737 14.21052632 0.57894737 14.21052632 -3 16 C-2.40984815 10.49191603 -1.43336231 5.35121931 0 0 Z " fill="#0A60C3" transform="translate(18,236)"/>
<path d="M0 0 C0.66 0.66 1.32 1.32 2 2 C0.04366438 4.45992909 -1.91540887 6.91766376 -3.875 9.375 C-4.43058594 10.07367188 -4.98617187 10.77234375 -5.55859375 11.4921875 C-6.36103516 12.49765625 -6.36103516 12.49765625 -7.1796875 13.5234375 C-7.67194824 14.14138184 -8.16420898 14.75932617 -8.67138672 15.39599609 C-10 17 -10 17 -12 19 C-11.69096017 17.66082739 -11.34976758 16.32911682 -11 15 C-10.731875 13.96875 -10.46375 12.9375 -10.1875 11.875 C-9 9 -9 9 -6.9375 7.75 C-6.298125 7.5025 -5.65875 7.255 -5 7 C-4.67 6.34 -4.34 5.68 -4 5 C-3.34 5 -2.68 5 -2 5 C-1.34 3.35 -0.68 1.7 0 0 Z " fill="#065FD6" transform="translate(169,135)"/>
<path d="M0 0 C3.37462715 0.54723683 5.08235 1.0549 8 3 C7.34 5.31 6.68 7.62 6 10 C3.25722422 6.80009492 1.3697164 3.99500618 0 0 Z " fill="#0666DD" transform="translate(519,416)"/>
<path d="M0 0 C0.33 0 0.66 0 1 0 C1.33868777 2.20751848 1.67071689 4.41605911 2 6.625 C2.185625 7.85476563 2.37125 9.08453125 2.5625 10.3515625 C2.95402516 13.6166027 3.08080924 16.71712451 3 20 C2.01 20 1.02 20 0 20 C0 13.4 0 6.8 0 0 Z " fill="#157BE1" transform="translate(853,280)"/>
<path d="M0 0 C1.9375 0.75 1.9375 0.75 4 2 C5.30302334 5.31678668 4.82719301 7.83137242 4.0625 11.25 C3.86785156 12.14203125 3.67320312 13.0340625 3.47265625 13.953125 C3.31667969 14.62859375 3.16070313 15.3040625 3 16 C2.67 16 2.34 16 2 16 C1.66104344 14.27192682 1.32908475 12.54248026 1 10.8125 C0.814375 9.84957031 0.62875 8.88664062 0.4375 7.89453125 C0.03122388 5.2065794 -0.07933572 2.71228981 0 0 Z " fill="#1A7BD7" transform="translate(768,274)"/>
<path d="M0 0 C0.66 0 1.32 0 2 0 C2.86625 1.423125 2.86625 1.423125 3.75 2.875 C6.30917613 6.4294113 7.81779089 7.04949793 12 8 C11.34 9.32 10.68 10.64 10 12 C6.04 8.7 2.08 5.4 -2 2 C-1.34 1.34 -0.68 0.68 0 0 Z " fill="#0664CA" transform="translate(314,116)"/>
<path d="M0 0 C0.66 0.66 1.32 1.32 2 2 C2.99 2.33 3.98 2.66 5 3 C5 3.99 5 4.98 5 6 C5.99 6.33 6.98 6.66 8 7 C3.02693484 6.50269348 -0.63799813 5.44697666 -5 3 C-2.25 0 -2.25 0 0 0 Z " fill="#137AE7" transform="translate(94,554)"/>
<path d="M0 0 C0.66 0.33 1.32 0.66 2 1 C0.8803014 2.00593243 -0.2459412 3.0045849 -1.375 4 C-2.31472656 4.8353125 -2.31472656 4.8353125 -3.2734375 5.6875 C-5 7 -5 7 -7 7 C-7.33 7.99 -7.66 8.98 -8 10 C-9.65 10.33 -11.3 10.66 -13 11 C-11.33333333 9.33333333 -9.66666667 7.66666667 -8 6 C-6.700625 4.63875 -6.700625 4.63875 -5.375 3.25 C-3 1 -3 1 0 0 Z " fill="#087CE7" transform="translate(222,447)"/>
<path d="M0 0 C0.99 0.33 1.98 0.66 3 1 C0.03 5.95 0.03 5.95 -3 11 C-3.33 10.01 -3.66 9.02 -4 8 C-4.99 8 -5.98 8 -7 8 C-6.67 7.01 -6.34 6.02 -6 5 C-4.35 5 -2.7 5 -1 5 C-0.67 3.35 -0.34 1.7 0 0 Z " fill="#107BE2" transform="translate(401,318)"/>
<path d="M0 0 C0.66 0.33 1.32 0.66 2 1 C3.38157895 6.52631579 3.38157895 6.52631579 3 9 C1.35 10.65 -0.3 12.3 -2 14 C-1.34 9.38 -0.68 4.76 0 0 Z " fill="#0D6AD2" transform="translate(9,275)"/>
<path d="M0 0 C0.66 0 1.32 0 2 0 C1.27991594 4.60853797 -0.31295939 8.67237409 -2 13 C-2.33 13 -2.66 13 -3 13 C-3.33 10.03 -3.66 7.06 -4 4 C-3.01 3.67 -2.02 3.34 -1 3 C-0.67 2.01 -0.34 1.02 0 0 Z " fill="#0A5EC6" transform="translate(126,206)"/>
<path d="M0 0 C1.32 0 2.64 0 4 0 C5.42944945 2.35438733 6.08661261 3.48032433 5.625 6.25 C5.41875 6.8275 5.2125 7.405 5 8 C3.68 7.67 2.36 7.34 1 7 C0.67 4.69 0.34 2.38 0 0 Z " fill="#047FDB" transform="translate(810,152)"/>
<path d="M0 0 C4.88049925 3.9419417 9.0580583 8.11950075 13 13 C8.72344436 11.45568824 5.07651994 10.03342656 2.875 5.875 C2.58625 5.25625 2.2975 4.6375 2 4 C1.34 3.67 0.68 3.34 0 3 C0 2.01 0 1.02 0 0 Z " fill="#035EC6" transform="translate(400,72)"/>
<path d="M0 0 C-1.24023608 3.72070823 -2.95730148 4.62521091 -6 7 C-6.99 8.485 -6.99 8.485 -8 10 C-10.625 10.1875 -10.625 10.1875 -13 10 C-3.28571429 0 -3.28571429 0 0 0 Z " fill="#0B7FE8" transform="translate(525,33)"/>
<path d="M0 0 C3.96 0 7.92 0 12 0 C12 1.32 12 2.64 12 4 C10.56208484 3.85831863 9.1246763 3.71148957 7.6875 3.5625 C6.88699219 3.48128906 6.08648438 3.40007813 5.26171875 3.31640625 C3 3 3 3 0 2 C0 1.34 0 0.68 0 0 Z " fill="#0E6ED4" transform="translate(666,564)"/>
<path d="M0 0 C0.99 0.33 1.98 0.66 3 1 C3 1.66 3 2.32 3 3 C3.66 3 4.32 3 5 3 C5 3.66 5 4.32 5 5 C2.35261084 6.4606285 1.10551666 7 -2 7 C-2.125 4.625 -2.125 4.625 -2 2 C-1.34 1.34 -0.68 0.68 0 0 Z " fill="#0684DD" transform="translate(771,553)"/>
<path d="M0 0 C3.49873271 1.39655297 4.70891831 2.71260484 6.25 6.125 C6.58515625 6.84945313 6.9203125 7.57390625 7.265625 8.3203125 C7.62914062 9.15175781 7.62914062 9.15175781 8 10 C7.34 10 6.68 10 6 10 C6 9.34 6 8.68 6 8 C5.34 8 4.68 8 4 8 C4 7.34 4 6.68 4 6 C1.525 5.01 1.525 5.01 -1 4 C-0.67 2.68 -0.34 1.36 0 0 Z " fill="#1166DB" transform="translate(603,371)"/>
<path d="M0 0 C4.75 0.75 4.75 0.75 7 3 C6.75 5.5625 6.75 5.5625 6 8 C5.01 8.495 5.01 8.495 4 9 C0 2.25 0 2.25 0 0 Z " fill="#0166D0" transform="translate(480,351)"/>
<path d="M0 0 C3.875 2.625 3.875 2.625 5 6 C6.65948148 7.01187895 8.32580562 8.0126546 10 9 C10 9.66 10 10.32 10 11 C9.34 11 8.68 11 8 11 C7.67 11.99 7.34 12.98 7 14 C5.82807953 12.04480616 4.6626071 10.0857461 3.5 8.125 C2.8503125 7.03445313 2.200625 5.94390625 1.53125 4.8203125 C0 2 0 2 0 0 Z " fill="#0764CE" transform="translate(444,291)"/>
<path d="M0 0 C1.32 0 2.64 0 4 0 C4 2.64 4 5.28 4 8 C2.68 8 1.36 8 0 8 C0 5.36 0 2.72 0 0 Z " fill="#0382DC" transform="translate(90,368)"/>
<path d="M0 0 C0.66 0 1.32 0 2 0 C2 0.66 2 1.32 2 2 C2.66 2 3.32 2 4 2 C4 2.66 4 3.32 4 4 C1.1875 6.6875 1.1875 6.6875 -2 9 C-2.99 8.67 -3.98 8.34 -5 8 C-4.21718695 6.66144944 -3.42348123 5.32926356 -2.625 4 C-2.18414062 3.2575 -1.74328125 2.515 -1.2890625 1.75 C-0.86367188 1.1725 -0.43828125 0.595 0 0 Z " fill="#0A7FED" transform="translate(292,346)"/>
<path d="M0 0 C0.66 0.33 1.32 0.66 2 1 C1.125 6.875 1.125 6.875 0 8 C-1.66617115 8.04063832 -3.33388095 8.042721 -5 8 C-1.125 1.125 -1.125 1.125 0 0 Z " fill="#0D7EE6" transform="translate(260,395)"/>
<path d="M0 0 C-2.475 4.455 -2.475 4.455 -5 9 C-7 6 -7 6 -6.875 3.4375 C-6 1 -6 1 -4.0625 -0.375 C-2 -1 -2 -1 0 0 Z " fill="#1776E3" transform="translate(386,350)"/>
<path d="M0 0 C9 10.66666667 9 10.66666667 9 15 C8.01 15 7.02 15 6 15 C5.87625 14.360625 5.7525 13.72125 5.625 13.0625 C5.41875 12.381875 5.2125 11.70125 5 11 C4.34 10.67 3.68 10.34 3 10 C0 3.76923077 0 3.76923077 0 0 Z " fill="#0A66CC" transform="translate(563,304)"/>
<path d="M0 0 C-0.46800711 4.05606165 -0.87953208 7.46588679 -3 11 C-3.12375 9.865625 -3.2475 8.73125 -3.375 7.5625 C-3.58125 6.386875 -3.7875 5.21125 -4 4 C-4.66 3.67 -5.32 3.34 -6 3 C-6 2.34 -6 1.68 -6 1 C-4 0 -4 0 0 0 Z " fill="#0E64CB" transform="translate(112,251)"/>
<path d="M0 0 C2.31 0 4.62 0 7 0 C7 1.32 7 2.64 7 4 C4.03 3.67 1.06 3.34 -2 3 C-1.34 2.67 -0.68 2.34 0 2 C0 1.34 0 0.68 0 0 Z " fill="#0459B2" transform="translate(260,92)"/>
<path d="M0 0 C1.98 0 3.96 0 6 0 C4.8141763 3.37503669 3.72426311 5.64722731 1 8 C0.67 5.36 0.34 2.72 0 0 Z " fill="#0982DA" transform="translate(330,434)"/>
<path d="M0 0 C0.66 0 1.32 0 2 0 C2 0.66 2 1.32 2 2 C3.65 2.33 5.3 2.66 7 3 C6.67 5.64 6.34 8.28 6 11 C3.13546142 7.58983503 1.65296434 4.09305456 0 0 Z " fill="#117DE0" transform="translate(735,175)"/>
<path d="M0 0 C-0.969375 0.474375 -1.93875 0.94875 -2.9375 1.4375 C-5.80477437 2.70193947 -5.80477437 2.70193947 -7 4 C-9.67058851 4.14115161 -12.32432238 4.04247107 -15 4 C-12.83900627 1.83900627 -11.4789582 1.28436284 -8.625 0.3125 C-7.46871094 -0.09548828 -7.46871094 -0.09548828 -6.2890625 -0.51171875 C-3.79944692 -1.04278009 -2.38446982 -0.81115526 0 0 Z " fill="#0E5FCB" transform="translate(205,7)"/>
<path d="M0 0 C1 3 1 3 0.14453125 4.7890625 C-0.51482422 5.69785156 -0.51482422 5.69785156 -1.1875 6.625 C-1.61417969 7.23601562 -2.04085937 7.84703125 -2.48046875 8.4765625 C-4.26692012 10.26760629 -5.53471865 10.60935585 -8 11 C-7.04454634 9.53977837 -6.08553322 8.08188532 -5.125 6.625 C-4.59132812 5.81289063 -4.05765625 5.00078125 -3.5078125 4.1640625 C-2 2 -2 2 0 0 Z " fill="#0A7AEC" transform="translate(251,408)"/>
<path d="M0 0 C0.33 0.66 0.66 1.32 1 2 C0.22265625 3.7265625 0.22265625 3.7265625 -0.9375 5.625 C-1.618125 6.73875 -2.29875 7.8525 -3 9 C-3.33 8.34 -3.66 7.68 -4 7 C-4.99 6.67 -5.98 6.34 -7 6 C-6.67 5.01 -6.34 4.02 -6 3 C-4.35 3 -2.7 3 -1 3 C-0.67 2.01 -0.34 1.02 0 0 Z " fill="#0F7DE4" transform="translate(353,404)"/>
<path d="M0 0 C1.83189733 3.66379466 2.66539297 5.98471569 3 10 C2.0625 12.375 2.0625 12.375 1 14 C0.67 14 0.34 14 0 14 C0 9.38 0 4.76 0 0 Z " fill="#0E7DE6" transform="translate(777,368)"/>
<path d="M0 0 C3.21524305 1.40844718 5.32183868 3.10344786 7.75 5.625 C8.67039062 6.57246094 8.67039062 6.57246094 9.609375 7.5390625 C10.29773438 8.26222656 10.29773438 8.26222656 11 9 C6.89797785 9 5.18693598 7.5088645 2 5 C0.625 2.25 0.625 2.25 0 0 Z " fill="#045CC5" transform="translate(386,59)"/>
<path d="M0 0 C2.1991413 4.39828259 2.51855059 7.18550592 3 12 C1.68 12 0.36 12 -1 12 C-0.67 8.04 -0.34 4.08 0 0 Z " fill="#1779E7" transform="translate(845,242)"/>
<path d="M0 0 C1.98 0 3.96 0 6 0 C6 1.65 6 3.3 6 5 C5.01 5.33 4.02 5.66 3 6 C2.01 4.02 1.02 2.04 0 0 Z " fill="#056BC9" transform="translate(495,377)"/>
<path d="M0 0 C2.91365213 3.80041582 4.13131548 5.80791607 4.0625 10.625 C4.05347656 11.44226563 4.04445313 12.25953125 4.03515625 13.1015625 C4.02355469 13.72804687 4.01195312 14.35453125 4 15 C1.4502185 10.11470435 0 5.54842611 0 0 Z " fill="#157CDD" transform="translate(759,236)"/>
<path d="M0 0 C2.875 -0.125 2.875 -0.125 6 0 C6.66 0.66 7.32 1.32 8 2 C-0.03571429 4.27678571 -0.03571429 4.27678571 -4 3 C-2.68 2.67 -1.36 2.34 0 2 C0 1.34 0 0.68 0 0 Z " fill="#0E80DF" transform="translate(194,564)"/>
<path d="M0 0 C0.99 0.33 1.98 0.66 3 1 C4.23076923 6.41538462 4.23076923 6.41538462 3.0625 9.375 C2.711875 9.91125 2.36125 10.4475 2 11 C0.80712589 7.12315913 0 4.08378077 0 0 Z " fill="#157BE4" transform="translate(8,444)"/>
<path d="M0 0 C0.66 0.33 1.32 0.66 2 1 C2.73075648 3.3140622 3.40138258 5.64828869 4 8 C2.35 8.66 0.7 9.32 -1 10 C-0.67 6.7 -0.34 3.4 0 0 Z " fill="#0F75D8" transform="translate(776,397)"/>
<path d="M0 0 C3.33557632 2.9905167 5.15083921 5.93184627 7 10 C6.34 10 5.68 10 5 10 C5 9.34 5 8.68 5 8 C4.01 8 3.02 8 2 8 C0.23537317 4.91190305 0 3.76687864 0 0 Z " fill="#0662C7" transform="translate(502,205)"/>
<path d="M0 0 C0.99 0.33 1.98 0.66 3 1 C-0.3 3.97 -3.6 6.94 -7 10 C-7.66 9.34 -8.32 8.68 -9 8 C-8.43410156 7.59007813 -7.86820313 7.18015625 -7.28515625 6.7578125 C-6.18494141 5.94957031 -6.18494141 5.94957031 -5.0625 5.125 C-4.33160156 4.59132813 -3.60070312 4.05765625 -2.84765625 3.5078125 C-0.88901765 2.11987896 -0.88901765 2.11987896 0 0 Z " fill="#0C60D1" transform="translate(190,114)"/>
<path d="M0 0 C0 0.66 0 1.32 0 2 C-3.3 2.33 -6.6 2.66 -10 3 C-10 2.34 -10 1.68 -10 1 C-6.78548731 -0.60725635 -3.56387464 -0.05748185 0 0 Z " fill="#094FA0" transform="translate(240,93)"/>
<path d="M0 0 C0.66 0.33 1.32 0.66 2 1 C2 1.66 2 2.32 2 3 C1.38125 3.2475 0.7625 3.495 0.125 3.75 C-2.35068687 5.20628639 -2.95125002 6.37812506 -4 9 C-5.32 8.67 -6.64 8.34 -8 8 C-5.36 5.36 -2.72 2.72 0 0 Z " fill="#0461D9" transform="translate(119,55)"/>
<path d="M0 0 C3.63 0 7.26 0 11 0 C8.09907498 1.93395001 7.10325263 2.30131941 3.8125 2.625 C2.554375 2.74875 1.29625 2.8725 0 3 C0 2.01 0 1.02 0 0 Z " fill="#1B78D2" transform="translate(744,565)"/>
<path d="M0 0 C0.66 0.33 1.32 0.66 2 1 C2 3.31 2 5.62 2 8 C0.68 8 -0.64 8 -2 8 C-1.125 2.25 -1.125 2.25 0 0 Z " fill="#0B5DBB" transform="translate(34,188)"/>
<path d="M0 0 C1.4391134 0.28359887 2.87625518 0.57721399 4.3125 0.875 C5.11300781 1.03742187 5.91351563 1.19984375 6.73828125 1.3671875 C9 2 9 2 12 4 C8.8125 4.8125 8.8125 4.8125 5 5 C2.0625 2.5625 2.0625 2.5625 0 0 Z " fill="#0C5CC6" transform="translate(299,7)"/>
<path d="M0 0 C1.875 0.125 1.875 0.125 4 1 C5.25 4.0625 5.25 4.0625 6 7 C5.34 7.66 4.68 8.32 4 9 C0 2.25 0 2.25 0 0 Z " fill="#0566D5" transform="translate(510,401)"/>
<path d="M0 0 C2.3125 0.1875 2.3125 0.1875 5 1 C6.8125 3.5625 6.8125 3.5625 8 6 C7.34 6.66 6.68 7.32 6 8 C4.02 5.36 2.04 2.72 0 0 Z " fill="#085FCE" transform="translate(357,163)"/>
<path d="M0 0 C0.33 0.66 0.66 1.32 1 2 C1.99 2 2.98 2 4 2 C4 2.66 4 3.32 4 4 C-0.455 5.485 -0.455 5.485 -5 7 C-3.35 4.69 -1.7 2.38 0 0 Z " fill="#0980DF" transform="translate(482,70)"/>
<path d="M0 0 C0.99 0 1.98 0 3 0 C3.33 1.32 3.66 2.64 4 4 C2.35 4.66 0.7 5.32 -1 6 C-1.042721 4.33388095 -1.04063832 2.66617115 -1 1 C-0.67 0.67 -0.34 0.34 0 0 Z " fill="#0482E1" transform="translate(244,538)"/>
<path d="M0 0 C0.66 0.99 1.32 1.98 2 3 C0.75 5.4375 0.75 5.4375 -1 8 C-2.32 8.33 -3.64 8.66 -5 9 C-3.35 6.03 -1.7 3.06 0 0 Z " fill="#0979E3" transform="translate(380,210)"/>
<path d="M0 0 C1.32 0 2.64 0 4 0 C4 0.99 4 1.98 4 3 C2.68 3.33 1.36 3.66 0 4 C0 4.99 0 5.98 0 7 C-0.66 6.67 -1.32 6.34 -2 6 C-1.34 4.02 -0.68 2.04 0 0 Z " fill="#0265CD" transform="translate(230,90)"/>
<path d="M0 0 C1.25541557 3.76624671 0.37061958 5.37188934 -1 9 C-1.33 8.01 -1.66 7.02 -2 6 C-2.66 6 -3.32 6 -4 6 C-3.67 4.68 -3.34 3.36 -3 2 C-2.01 2 -1.02 2 0 2 C0 1.34 0 0.68 0 0 Z " fill="#157ED6" transform="translate(847,464)"/>
<path d="M0 0 C2.79872437 2.52788007 4.45773019 4.20411134 5 8 C2.525 7.01 2.525 7.01 0 6 C0 4.02 0 2.04 0 0 Z " fill="#0767D6" transform="translate(515,225)"/>
<path d="M0 0 C3.37503669 1.1858237 5.64722731 2.27573689 8 5 C4.25 6.125 4.25 6.125 2 5 C2 4.34 2 3.68 2 3 C1.34 3 0.68 3 0 3 C0 2.01 0 1.02 0 0 Z " fill="#015EC5" transform="translate(352,32)"/>
<path d="M0 0 C3.77545388 1.09068668 6.47043472 1.9083091 9 5 C6.69 5 4.38 5 2 5 C1.34 3.35 0.68 1.7 0 0 Z " fill="#1078D8" transform="translate(688,16)"/>
<path d="M0 0 C0.99 0 1.98 0 3 0 C1.52307692 4.67692308 1.52307692 4.67692308 -1.125 6.3125 C-2.053125 6.6528125 -2.053125 6.6528125 -3 7 C-1.125 2.25 -1.125 2.25 0 0 Z " fill="#0680F4" transform="translate(300,334)"/>
<path d="M0 0 C0.99 0 1.98 0 3 0 C2.67 2.97 2.34 5.94 2 9 C-0.29013653 5.5647952 -0.17842973 4.014669 0 0 Z " fill="#116BD6" transform="translate(101,284)"/>
<path d="M0 0 C2.9555377 2.75170751 5.11563315 5.41970299 7 9 C7 9.66 7 10.32 7 11 C4 10 4 10 2.375 7.1875 C1.32007836 4.74199982 0.49954659 2.59764224 0 0 Z " fill="#1466CC" transform="translate(523,238)"/>
<path d="M0 0 C2.74277578 3.19990508 4.6302836 6.00499382 6 10 C5.34 10 4.68 10 4 10 C3.71125 9.360625 3.4225 8.72125 3.125 8.0625 C2.17176549 5.84793921 2.17176549 5.84793921 0 5 C0 3.35 0 1.7 0 0 Z " fill="#065ACB" transform="translate(509,215)"/>
<path d="M0 0 C1.32 0.66 2.64 1.32 4 2 C3.67 2.99 3.34 3.98 3 5 C1.68 5 0.36 5 -1 5 C-0.67 3.35 -0.34 1.7 0 0 Z " fill="#0465CA" transform="translate(66,122)"/>
<path d="M0 0 C3.465 1.485 3.465 1.485 7 3 C4.03312999 4.64826111 1.34373475 5.44271087 -2 6 C-1.34 4.02 -0.68 2.04 0 0 Z " fill="#1579EA" transform="translate(584,74)"/>
<path d="M0 0 C0 0.66 0 1.32 0 2 C-2.97 1.67 -5.94 1.34 -9 1 C-4.82091936 -1.08954032 -4.19589427 -1.16552619 0 0 Z " fill="#167ADB" transform="translate(126,566)"/>
<path d="M0 0 C0.66 0 1.32 0 2 0 C2.33 1.98 2.66 3.96 3 6 C1.02 5.01 -0.96 4.02 -3 3 C-2.01 2.67 -1.02 2.34 0 2 C0 1.34 0 0.68 0 0 Z " fill="#0372D3" transform="translate(620,538)"/>
<path d="M0 0 C1.98 0.99 1.98 0.99 4 2 C4 2.66 4 3.32 4 4 C4.66 4 5.32 4 6 4 C5.67 5.32 5.34 6.64 5 8 C4.16382818 6.8562364 3.33113541 5.70992861 2.5 4.5625 C2.0359375 3.92441406 1.571875 3.28632813 1.09375 2.62890625 C0 1 0 1 0 0 Z " fill="#0863CD" transform="translate(541,451)"/>
<path d="M0 0 C0 3.20395416 -0.74335022 5.09399739 -2 8 C-2.99 8 -3.98 8 -5 8 C-3.62845496 5.04590299 -2.01136276 2.55991624 0 0 Z " fill="#0B77DF" transform="translate(242,420)"/>
<path d="M0 0 C3.42054006 1.14018002 4.2426201 1.92458518 6 5 C5.67 6.32 5.34 7.64 5 9 C3.35 6.03 1.7 3.06 0 0 Z " fill="#0A5FCC" transform="translate(453,307)"/>
<path d="M0 0 C0.66 0 1.32 0 2 0 C2 0.66 2 1.32 2 2 C2.66 2 3.32 2 4 2 C4 4.64 4 7.28 4 10 C1.81024227 6.71536341 1.00193437 3.79303725 0 0 Z " fill="#1979E1" transform="translate(751,213)"/>
<path d="M0 0 C1.98 0 3.96 0 6 0 C4.68 1.32 3.36 2.64 2 4 C1.01 3.67 0.02 3.34 -1 3 C-0.67 2.01 -0.34 1.02 0 0 Z " fill="#0366C4" transform="translate(171,129)"/>
<path d="M0 0 C2.01920337 1.30406884 4.01924973 2.63823419 6 4 C6 4.33 6 4.66 6 5 C4.02 5 2.04 5 0 5 C-0.33 4.01 -0.66 3.02 -1 2 C-0.67 1.34 -0.34 0.68 0 0 Z " fill="#107EDE" transform="translate(732,44)"/>
<path d="M0 0 C0.66 0.33 1.32 0.66 2 1 C-0.97 3.475 -0.97 3.475 -4 6 C-4.66 5.01 -5.32 4.02 -6 3 C-4.03533587 1.93224776 -2.03144641 0.93446535 0 0 Z " fill="#0E7CEF" transform="translate(553,15)"/>
<path d="M0 0 C2.375 0.25 2.375 0.25 5 1 C6.375 2.875 6.375 2.875 7 5 C6.67 5.99 6.34 6.98 6 8 C4.02 5.36 2.04 2.72 0 0 Z " fill="#096BD9" transform="translate(585,509)"/>
<path d="M0 0 C-0.66 1.65 -1.32 3.3 -2 5 C-3.32 4.67 -4.64 4.34 -6 4 C-5.67 3.01 -5.34 2.02 -5 1 C-2 0 -2 0 0 0 Z " fill="#0381E7" transform="translate(304,480)"/>
<path d="M0 0 C0.99 0 1.98 0 3 0 C3 0.99 3 1.98 3 3 C3.99 3.33 4.98 3.66 6 4 C5.67 5.32 5.34 6.64 5 8 C2.525 4.04 2.525 4.04 0 0 Z " fill="#0764D2" transform="translate(532,438)"/>
<path d="M0 0 C-1 3 -1 3 -3.4375 4.75 C-4.7059375 5.36875 -4.7059375 5.36875 -6 6 C-6.66 5.67 -7.32 5.34 -8 5 C-3.375 0 -3.375 0 0 0 Z " fill="#0584EC" transform="translate(229,440)"/>
<path d="M0 0 C0.66 0 1.32 0 2 0 C4.1875 2.25 4.1875 2.25 6 5 C5.67 6.32 5.34 7.64 5 9 C3.35 6.03 1.7 3.06 0 0 Z " fill="#0862CC" transform="translate(501,387)"/>
<path d="M0 0 C1.9375 0.5625 1.9375 0.5625 4 2 C4.75 5.625 4.75 5.625 5 9 C0.57142857 3.85714286 0.57142857 3.85714286 0 0 Z " fill="#0763D2" transform="translate(438,281)"/>
<path d="M0 0 C4.42857143 5.14285714 4.42857143 5.14285714 5 9 C2 8 2 8 0 5 C-0.125 2.3125 -0.125 2.3125 0 0 Z " fill="#0B60D9" transform="translate(431,267)"/>
<path d="M0 0 C1.5 1.375 1.5 1.375 3 3 C3 3.66 3 4.32 3 5 C1.02 5 -0.96 5 -3 5 C-2.01 3.35 -1.02 1.7 0 0 Z " fill="#0980DE" transform="translate(355,249)"/>
<path d="M0 0 C1.65 0 3.3 0 5 0 C4.34 2.31 3.68 4.62 3 7 C2.67 7 2.34 7 2 7 C2 5.35 2 3.7 2 2 C1.34 2 0.68 2 0 2 C0 1.34 0 0.68 0 0 Z " fill="#0B62C7" transform="translate(115,228)"/>
<path d="M0 0 C2.12508244 3.18762365 2.5020163 5.26512223 3 9 C2.01 9 1.02 9 0 9 C0 6.03 0 3.06 0 0 Z " fill="#137CDF" transform="translate(837,213)"/>
<path d="M0 0 C1.65 0 3.3 0 5 0 C5.33 0.99 5.66 1.98 6 3 C5.34 3.66 4.68 4.32 4 5 C2.68 3.35 1.36 1.7 0 0 Z " fill="#0066D2" transform="translate(336,139)"/>
<path d="M0 0 C-2.31 1.32 -4.62 2.64 -7 4 C-6.625 2.0625 -6.625 2.0625 -6 0 C-3.50907189 -1.24546405 -2.58919267 -0.7767578 0 0 Z " fill="#0D5DCF" transform="translate(202,109)"/>
<path d="M0 0 C1.32 1.32 2.64 2.64 4 4 C0.25 5.125 0.25 5.125 -2 4 C-2 3.34 -2 2.68 -2 2 C-1.34 2 -0.68 2 0 2 C0 1.34 0 0.68 0 0 Z " fill="#0F7DE1" transform="translate(764,76)"/>
<path d="" fill="#0018CA" transform="translate(0,0)"/>
<path d="" fill="#182FD9" transform="translate(0,0)"/>
<path d="" fill="#0D2DD4" transform="translate(0,0)"/>
<path d="" fill="#0017B5" transform="translate(0,0)"/>
<path d="" fill="#000BAE" transform="translate(0,0)"/>
<path d="" fill="#000DB2" transform="translate(0,0)"/>
<path d="" fill="#002E6C" transform="translate(0,0)"/>
<path d="" fill="#000631" transform="translate(0,0)"/>
<path d="" fill="#0032A5" transform="translate(0,0)"/>
<path d="" fill="#001FD0" transform="translate(0,0)"/>
<path d="" fill="#0011DD" transform="translate(0,0)"/>
<path d="" fill="#0018E0" transform="translate(0,0)"/>
<path d="" fill="#0024D5" transform="translate(0,0)"/>
<path d="" fill="#0031F1" transform="translate(0,0)"/>
<path d="" fill="#00299A" transform="translate(0,0)"/>
<path d="" fill="#0015BF" transform="translate(0,0)"/>
<path d="" fill="#00114A" transform="translate(0,0)"/>
<path d="" fill="#0313BB" transform="translate(0,0)"/>
<path d="" fill="#003376" transform="translate(0,0)"/>
<path d="" fill="#000722" transform="translate(0,0)"/>
<path d="" fill="#000826" transform="translate(0,0)"/>
<path d="" fill="#002775" transform="translate(0,0)"/>
<path d="" fill="#2339DA" transform="translate(0,0)"/>
<path d="" fill="#000945" transform="translate(0,0)"/>
<path d="" fill="#001A6A" transform="translate(0,0)"/>
<path d="" fill="#0028B4" transform="translate(0,0)"/>
<path d="" fill="#223BE6" transform="translate(0,0)"/>
<path d="" fill="#00062C" transform="translate(0,0)"/>
<path d="" fill="#00357B" transform="translate(0,0)"/>
<path d="" fill="#0116BE" transform="translate(0,0)"/>
<path d="" fill="#1328C2" transform="translate(0,0)"/>
<path d="" fill="#001B6B" transform="translate(0,0)"/>
<path d="" fill="#0D20D4" transform="translate(0,0)"/>
<path d="" fill="#000577" transform="translate(0,0)"/>
<path d="" fill="#0018C0" transform="translate(0,0)"/>
<path d="" fill="#000071" transform="translate(0,0)"/>
<path d="" fill="#0025E3" transform="translate(0,0)"/>
<path d="" fill="#002AC7" transform="translate(0,0)"/>
<path d="" fill="#0011D2" transform="translate(0,0)"/>
<path d="" fill="#0025AD" transform="translate(0,0)"/>
<path d="" fill="#0019E1" transform="translate(0,0)"/>
<path d="" fill="#0017ED" transform="translate(0,0)"/>
<path d="" fill="#0019C3" transform="translate(0,0)"/>
<path d="" fill="#0024AA" transform="translate(0,0)"/>
<path d="" fill="#0018E3" transform="translate(0,0)"/>
<path d="" fill="#000DB8" transform="translate(0,0)"/>
<path d="" fill="#0912BE" transform="translate(0,0)"/>
<path d="" fill="#002275" transform="translate(0,0)"/>
<path d="" fill="#0D29CF" transform="translate(0,0)"/>
<path d="" fill="#0014BF" transform="translate(0,0)"/>
<path d="" fill="#0024CC" transform="translate(0,0)"/>
<path d="" fill="#000731" transform="translate(0,0)"/>
<path d="" fill="#000722" transform="translate(0,0)"/>
<path d="" fill="#0116BE" transform="translate(0,0)"/>
<path d="" fill="#0014C4" transform="translate(0,0)"/>
<path d="" fill="#122A72" transform="translate(0,0)"/>
<path d="" fill="#000440" transform="translate(0,0)"/>
<path d="" fill="#122ACF" transform="translate(0,0)"/>
<path d="" fill="#094382" transform="translate(0,0)"/>
<path d="" fill="#1621CC" transform="translate(0,0)"/>
<path d="" fill="#101AC8" transform="translate(0,0)"/>
<path d="" fill="#0018DF" transform="translate(0,0)"/>
<path d="" fill="#0E25C8" transform="translate(0,0)"/>
<path d="" fill="#0029D2" transform="translate(0,0)"/>
<path d="" fill="#0030EF" transform="translate(0,0)"/>
<path d="" fill="#003C7B" transform="translate(0,0)"/>
<path d="" fill="#0018B4" transform="translate(0,0)"/>
<path d="" fill="#0D26DB" transform="translate(0,0)"/>
<path d="" fill="#0B24DA" transform="translate(0,0)"/>
<path d="" fill="#000CC5" transform="translate(0,0)"/>
<path d="" fill="#0008C2" transform="translate(0,0)"/>
<path d="" fill="#0019E2" transform="translate(0,0)"/>
<path d="" fill="#162ED0" transform="translate(0,0)"/>
<path d="" fill="#000069" transform="translate(0,0)"/>
<path d="" fill="#000AD6" transform="translate(0,0)"/>
<path d="" fill="#0A32BB" transform="translate(0,0)"/>
<path d="" fill="#000FC5" transform="translate(0,0)"/>
<path d="" fill="#010EC9" transform="translate(0,0)"/>
<path d="" fill="#040DC5" transform="translate(0,0)"/>
<path d="" fill="#1021CD" transform="translate(0,0)"/>
<path d="" fill="#0614C5" transform="translate(0,0)"/>
<path d="" fill="#0414CA" transform="translate(0,0)"/>
<path d="" fill="#0013C9" transform="translate(0,0)"/>
<path d="" fill="#0A26D7" transform="translate(0,0)"/>
<path d="" fill="#082E95" transform="translate(0,0)"/>
<path d="" fill="#0412B8" transform="translate(0,0)"/>
<path d="" fill="#000356" transform="translate(0,0)"/>
<path d="" fill="#002461" transform="translate(0,0)"/>
<path d="" fill="#00081C" transform="translate(0,0)"/>
<path d="" fill="#00065D" transform="translate(0,0)"/>
<path d="" fill="#0031EA" transform="translate(0,0)"/>
<path d="" fill="#043280" transform="translate(0,0)"/>
<path d="" fill="#030FC1" transform="translate(0,0)"/>
<path d="" fill="#0012D2" transform="translate(0,0)"/>
<path d="" fill="#0D29CB" transform="translate(0,0)"/>
<path d="" fill="#0E2CCD" transform="translate(0,0)"/>
<path d="" fill="#002155" transform="translate(0,0)"/>
<path d="" fill="#00218A" transform="translate(0,0)"/>
<path d="" fill="#001DDB" transform="translate(0,0)"/>
<path d="" fill="#0020C1" transform="translate(0,0)"/>
<path d="" fill="#0010D4" transform="translate(0,0)"/>
<path d="" fill="#00037A" transform="translate(0,0)"/>
<path d="" fill="#000E41" transform="translate(0,0)"/>
<path d="" fill="#000B45" transform="translate(0,0)"/>
<path d="" fill="#000C39" transform="translate(0,0)"/>
<path d="" fill="#000C42" transform="translate(0,0)"/>
<path d="" fill="#00123A" transform="translate(0,0)"/>
</svg>
