<?xml version="1.0" encoding="UTF-8"?>
<svg version="1.1" xmlns="http://www.w3.org/2000/svg" width="1024" height="1024">
<path d="M0 0 C3.26809943 -0.01643034 6.53616628 -0.02706739 9.80429459 -0.03578568 C10.79947507 -0.04085664 11.79465555 -0.0459276 12.81999302 -0.05115223 C23.90275822 -0.0659098 35.84719657 0.46055284 44.34140396 8.53647995 C49.6993782 14.26727397 53.24778808 20.82711487 56.93246841 27.70615768 C57.92230908 29.52583982 58.91579983 31.34349999 59.90932083 33.16117477 C60.57481959 34.37948333 61.2391405 35.59843604 61.90227127 36.81803513 C64.79603857 42.13701411 67.78427999 47.39749142 70.80746841 52.64365768 C75.21988401 60.32005195 79.55724044 68.035851 83.86996841 75.76865768 C88.0307374 83.21292164 92.20634052 90.64712992 96.49496841 98.01865768 C96.90118423 98.72474167 97.30740005 99.43082565 97.72592545 100.15830612 C99.6357781 103.67907543 99.6357781 103.67907543 102.74496841 106.01865768 C104.08195063 106.11239211 105.42347493 106.14525424 106.76373863 106.14614964 C107.60925226 106.14915728 108.45476589 106.15216493 109.32590115 106.15526372 C110.72722784 106.15263816 110.72722784 106.15263816 112.15686417 106.14995956 C113.14523171 106.15207528 114.13359926 106.15419099 115.15191734 106.15637082 C118.4851914 106.1623931 121.81842783 106.16136908 125.1517067 106.16050339 C127.53308044 106.16353345 129.91445361 106.16705448 132.29582596 106.17103195 C137.43538986 106.17893381 142.57494678 106.18407073 147.71451569 106.18732262 C155.84088863 106.19281685 163.96721954 106.20971279 172.09357071 106.2286644 C174.87344162 106.23502156 177.65331265 106.24132996 180.43318367 106.24764156 C181.12797171 106.24922533 181.82275975 106.25080909 182.53860197 106.25244084 C190.45146328 106.27038537 198.36432757 106.28660692 206.27719498 106.30161667 C207.36242983 106.30368048 207.36242983 106.30368048 208.46958862 106.30578598 C220.18463413 106.32769926 231.89966884 106.33846779 243.61473121 106.34598742 C255.64273359 106.35406373 267.67064346 106.37737249 279.69859302 106.41394109 C286.45164997 106.43397611 293.2045606 106.4466482 299.95764923 106.4411068 C306.31227035 106.43646531 312.66658386 106.45023906 319.02114296 106.4781189 C321.35275704 106.48503954 323.68440286 106.4851479 326.01601601 106.47791862 C329.20143394 106.46904022 332.38583537 106.48470903 335.57117081 106.50640488 C336.49200427 106.49796234 337.41283774 106.4895198 338.36157525 106.48082143 C345.41399861 106.56952041 350.60165978 108.37616336 356.02353287 112.93418503 C361.30227199 119.02666008 365.15188162 125.54295978 368.93246841 132.64365768 C369.58198779 133.84133608 370.23289242 135.03826416 370.88510513 136.234478 C372.20847843 138.66265455 373.52724884 141.09324066 374.84311295 143.52549362 C377.62751064 148.63963512 380.49323715 153.70604986 383.36996841 158.76865768 C384.43909788 160.65530897 385.50810879 162.54202746 386.57699966 164.42881393 C387.1011647 165.35323288 387.62532974 166.27765182 388.16537857 167.23008347 C389.74050443 170.01077707 391.31176889 172.79361483 392.88168716 175.57725143 C398.52095052 185.57408784 404.18925474 195.55363731 409.89245987 205.51411057 C412.8487499 210.67918187 415.79833963 215.84806891 418.74496841 221.01865768 C419.28943619 221.97401413 419.83390396 222.92937057 420.39487076 223.91367722 C421.80971429 226.40341956 423.21668799 228.89738447 424.61996841 231.39365768 C425.01853043 232.09402145 425.41709244 232.79438522 425.82773209 233.51597214 C429.88597007 240.78069685 431.5987761 246.77004428 430.74496841 255.01865768 C428.55373341 262.74299202 424.26718886 269.45030553 420.03558731 276.19538498 C418.11607654 279.25926339 416.22600928 282.34110732 414.33871841 285.42490768 C413.95273987 286.05549591 413.56676132 286.68608414 413.16908646 287.3357811 C407.27835554 297.0123113 401.91400019 306.98473329 396.46323013 316.91318893 C393.85721806 321.62311698 391.17815547 326.28991676 388.49496841 330.95615768 C387.53757883 332.63433872 386.5805429 334.31272157 385.62387466 335.99131393 C383.61445291 339.51385864 381.57384898 343.01659443 379.52231216 346.51475143 C378.49160277 348.30728255 377.4616294 350.10023712 376.43246841 351.89365768 C375.94552505 352.70826462 375.4585817 353.52287155 374.95688248 354.36216354 C372.81998418 358.12929321 371.74356433 360.3475076 371.75278091 364.75303268 C372.776521 368.12250794 373.97194012 370.47585652 375.93246841 373.39365768 C380.03628296 379.71598327 383.71702048 386.23971692 387.36996841 392.83115768 C392.03326535 401.21709188 396.76550907 409.55437365 401.61996841 417.83115768 C406.67189101 426.44768165 411.67063638 435.09286323 416.61996841 443.76865768 C416.95333206 444.35297562 417.28669571 444.93729355 417.63016129 445.53931808 C419.32500332 448.51057749 421.01904826 451.4822904 422.71274185 454.45420456 C425.71967586 459.72959064 428.73356458 465.00100206 431.74698257 470.272686 C433.41326771 473.18784426 435.07909469 476.10326431 436.74496841 479.01865768 C437.41163289 480.1853256 438.07829956 481.35199227 438.74496841 482.51865768 C458.74496842 517.51865769 458.74496842 517.51865769 459.74478531 519.26839828 C460.41199223 520.43596968 461.07926934 521.60350096 461.74661636 522.77099228 C463.40559403 525.67349531 465.06310454 528.57681264 466.71860123 531.48130417 C469.80942279 536.90091569 472.91013194 542.31368427 476.05246353 547.70362473 C477.51923968 550.22115663 478.97949615 552.74244189 480.43930435 555.26401901 C481.45937476 557.01988952 482.48872796 558.77035706 483.51840591 560.52061081 C494.64122033 579.75667154 494.64122033 579.75667154 492.74496841 589.01865768 C489.87816523 597.81863558 485.92116858 605.83650475 481.30746841 613.83115768 C480.69838638 614.90301315 480.08930435 615.97486862 479.46176529 617.07920456 C474.70584181 625.42284422 469.85857037 633.71392195 464.99716568 641.99644089 C460.82302843 649.12161233 456.76115222 656.3034357 452.74496841 663.51865768 C447.99696898 672.03565315 443.19790366 680.52002557 438.30746841 688.95615768 C437.4750563 690.40248581 437.4750563 690.40248581 436.62582779 691.87803268 C423.41272155 714.56079609 423.41272155 714.56079609 411.22689629 718.41335297 C407.12115827 719.41468045 403.12629623 719.44978541 398.91757584 719.43516159 C397.51074287 719.44803963 397.51074287 719.44803963 396.07548904 719.46117783 C393.00039366 719.486101 389.92562408 719.49060657 386.85043716 719.49522018 C384.69485383 719.50955026 382.53927957 719.52531084 380.38371658 719.54243088 C374.72162055 719.58418 369.05958076 719.60923534 363.3973732 719.62992477 C354.34711637 719.66579484 345.29699924 719.72716643 336.2468853 719.788414 C333.10303258 719.80732855 329.95921692 719.81918548 326.81532669 719.82984543 C315.19411595 719.87292083 315.19411595 719.87292083 303.58115005 720.26133347 C302.71115875 720.30202957 301.84116745 720.34272568 300.94481277 720.384655 C297.9131176 721.25839994 296.8735235 722.81471883 295.07309341 725.34678268 C294.00268314 727.29703776 292.97932216 729.27358357 291.99496841 731.26865768 C291.42262466 732.33406784 290.85028091 733.399478 290.26059341 734.49717331 C289.03006003 736.79248935 287.81772805 739.09763798 286.62192154 741.41123581 C284.74108739 745.05001571 282.77827346 748.63977102 280.79184341 752.22178268 C280.45972351 752.82074356 280.12760361 753.41970444 279.78541946 754.03681564 C279.11091224 755.25255636 278.43616284 756.46816274 277.76117325 757.68363571 C276.73882271 759.52975534 275.72296241 761.37930134 274.70907974 763.23008347 C269.94046923 771.92856771 264.99827886 780.51431586 259.96371841 789.06162643 C255.60547911 796.48348067 251.40267966 803.98287294 247.24496841 811.51865768 C241.98075362 821.05454227 236.59406491 830.50491921 231.08041763 839.8985405 C226.6253509 847.4927158 222.23246613 855.12104879 217.86996841 862.76865768 C217.5371788 863.35182755 217.20438919 863.93499741 216.86151505 864.53583908 C214.48777406 868.69589061 212.11610329 872.85712032 209.74496841 877.01865768 C208.38576485 879.4041721 207.02641109 881.78960077 205.66684341 884.17490768 C205.33151596 884.76328918 204.99618851 885.35167068 204.65069962 885.95788193 C202.3214656 890.04310524 199.98356833 894.12327847 197.64340591 898.20225143 C195.03905191 902.74266013 192.46476555 907.29838084 189.90903091 911.86631393 C188.68803401 914.0214643 187.4666954 916.17642111 186.24496841 918.33115768 C185.70597916 919.30923386 185.1669899 920.28731003 184.61166763 921.29502487 C180.06756408 929.24685622 174.7398728 935.4536798 165.89731216 938.51084518 C158.43690772 940.2710132 151.05625075 940.17297207 143.4251442 940.1797905 C142.07912436 940.18442557 140.73310582 940.18945114 139.38708878 940.19483566 C135.7465197 940.20789214 132.105969 940.21439092 128.46538019 940.21884632 C126.18697015 940.22178696 123.90856502 940.22589351 121.63015747 940.23035049 C114.48983731 940.24400534 107.34952852 940.25368279 100.20919621 940.25755239 C91.98777043 940.26203349 83.76651087 940.27959225 75.54513562 940.30855298 C69.17462711 940.3302096 62.80416524 940.34025872 56.43362033 940.3415935 C52.63555481 940.34263834 48.83764597 940.34847781 45.03961945 940.36641312 C41.46575781 940.3829638 37.89216953 940.38501572 34.31828308 940.37627411 C32.39371874 940.37514418 30.46916317 940.38880582 28.54465103 940.40302658 C19.32924762 940.35891313 11.31089381 939.39564387 4.3626442 932.88877487 C1.16246824 929.18920532 -1.03065699 924.94426049 -3.31753159 920.64365768 C-4.45249508 918.57238242 -5.58927264 916.50210034 -6.72768784 914.43272018 C-7.30792709 913.37085495 -7.88816635 912.30898972 -8.48598862 911.21494675 C-11.31885746 906.09654778 -14.28757602 901.05982158 -17.25503159 896.01865768 C-22.37100571 887.29302857 -27.38362881 878.51503104 -32.34072495 869.69834518 C-37.54842488 860.45577185 -42.89609264 851.29683155 -48.25893784 842.14365768 C-48.77472397 841.26064987 -49.2905101 840.37764206 -49.82192612 839.46787643 C-50.72418214 837.92589476 -51.63079783 836.38644771 -52.5436058 834.85068893 C-55.25503159 830.2385311 -55.25503159 830.2385311 -55.25503159 828.01865768 C-56.49632702 828.01626933 -57.73762245 828.01388098 -59.0165329 828.01142025 C-88.51525745 827.95399889 -118.013903 827.88122478 -147.51253931 827.7896714 C-151.14724343 827.77840391 -154.78194792 827.76726535 -158.41665268 827.75620651 C-159.50201018 827.75290099 -159.50201018 827.75290099 -160.60929409 827.74952868 C-172.30882231 827.71420414 -184.00835048 827.68931271 -195.70791218 827.66831066 C-207.72230448 827.64650995 -219.73662789 827.61341917 -231.75096154 827.56995612 C-238.4952035 827.54587918 -245.2393771 827.52693273 -251.98366165 827.52104378 C-258.3365929 827.51498394 -264.68932952 827.4949511 -271.04218864 827.46438217 C-273.36889226 827.45561644 -275.69562132 827.45187631 -278.02234077 827.45364952 C-306.21018755 827.46834388 -306.21018755 827.46834388 -311.95009613 822.57300472 C-313.80868525 820.35918451 -315.13834441 817.96252039 -316.55581284 815.44443893 C-317.51596298 813.74940231 -317.51596298 813.74940231 -318.4955101 812.02012253 C-318.83285172 811.41947983 -319.17019333 810.81883713 -319.51775742 810.19999313 C-321.31096633 807.0076757 -323.12028592 803.82449123 -324.92690659 800.63975143 C-325.29304565 799.99322617 -325.65918472 799.3467009 -326.03641891 798.68058395 C-329.41360413 792.72233965 -332.85559125 786.80303758 -336.31753159 780.89365768 C-343.0393025 769.40514073 -349.69405538 757.87874781 -356.33755112 746.34482956 C-358.29569486 742.94812083 -360.25730085 739.5534331 -362.21987534 736.15928268 C-365.90602782 729.78353138 -369.58340101 723.40278129 -373.25503159 717.01865768 C-374.00333237 715.72024948 -374.00333237 715.72024948 -374.76675034 714.39561081 C-376.05990342 712.1479876 -377.34641685 709.89673795 -378.63003159 707.64365768 C-378.99338608 707.01378952 -379.35674057 706.38392136 -379.7311058 705.73496628 C-382.86005608 700.20772293 -384.03765778 695.39355424 -383.25503159 689.01865768 C-380.79443504 680.97171965 -376.49631571 673.6795651 -372.38003159 666.39365768 C-371.7117722 665.20111216 -371.04380899 664.00840064 -370.37612534 662.81553268 C-365.53335578 654.18639268 -360.5592478 645.63606076 -355.5423851 637.10703659 C-350.37876825 628.30241721 -345.41439437 619.39269299 -340.49135971 610.45225143 C-339.90934799 609.39650925 -339.32733627 608.34076706 -338.72768784 607.25303268 C-338.16323959 606.22242722 -337.59879135 605.19182175 -337.01723862 604.12998581 C-335.80020914 601.98121555 -334.53178048 599.86103875 -333.2232933 597.76670456 C-332.57247787 596.72063034 -331.92166245 595.67455612 -331.25112534 594.59678268 C-330.6535643 593.66769089 -330.05600327 592.73859909 -329.44033432 591.781353 C-327.94553762 588.29729132 -328.21086443 586.63416727 -329.25503159 583.01865768 C-330.50124697 580.18376343 -330.50124697 580.18376343 -332.14175034 577.37022018 C-333.04365097 575.75772385 -333.04365097 575.75772385 -333.96377182 574.11265182 C-334.61676254 572.96788376 -335.26975327 571.82311569 -335.94253159 570.64365768 C-336.62548074 569.43231239 -337.30784497 568.22063714 -337.98965073 567.00864792 C-343.44666195 557.33475723 -349.04378789 547.74224907 -354.66518784 538.16318893 C-358.53463107 531.55898333 -362.33767488 524.91729975 -366.13003159 518.26865768 C-366.46348587 517.68415848 -366.79694016 517.09965927 -367.14049911 516.49744797 C-368.8352453 513.52636921 -370.52921531 510.5548489 -372.22280502 507.58311081 C-375.23000336 502.30726098 -378.24417698 497.03539779 -381.25786972 491.76325607 C-382.25474986 490.01915057 -383.2513934 488.2749101 -384.24795151 486.53062057 C-387.27459618 481.23310099 -390.301928 475.9359782 -393.33198166 470.64040756 C-402.01865987 455.45879265 -410.66228565 440.25366522 -419.25503159 425.01865768 C-420.89499351 422.11207849 -422.53533713 419.20571722 -424.17666245 416.29990768 C-425.2620829 414.37744896 -426.3462506 412.45428234 -427.42910385 410.53037643 C-430.12495581 405.74869779 -432.84999819 400.98794812 -435.63393784 396.25693893 C-436.45172714 394.85725876 -436.45172714 394.85725876 -437.28603745 393.42930222 C-438.31058257 391.67899186 -439.34329647 389.93342375 -440.3861351 388.19395065 C-445.73991319 379.0163106 -448.98575188 369.76416518 -446.62221909 359.18662643 C-443.39747975 348.68717984 -437.54281459 339.60262739 -431.93862534 330.23740768 C-428.55644935 324.576187 -425.37337889 318.82837616 -422.25503159 313.01865768 C-417.55668242 304.30143704 -412.63256639 295.73730951 -407.61318588 287.20151901 C-403.33976663 279.91937764 -399.17854986 272.58106164 -395.06753159 265.20615768 C-394.19535995 263.64913132 -394.19535995 263.64913132 -393.3055687 262.06064987 C-390.59471945 257.22113179 -387.90109012 252.37403952 -385.24721909 247.50303268 C-374.22517523 227.51447868 -374.22517523 227.51447868 -362.25503159 224.01865768 C-351.13022006 222.51426259 -339.87267739 223.08546153 -328.69131088 223.47109604 C-320.56525652 223.7505972 -312.43763016 223.87641732 -304.30787277 223.99611568 C-298.15754254 224.09324291 -292.01695507 224.24204284 -285.87124252 224.50327682 C-260.01992754 227.07758062 -260.01992754 227.07758062 -236.52822495 219.37125778 C-230.65149254 213.29516422 -227.92848821 205.62687785 -225.50538254 197.65598679 C-223.42977284 191.61794158 -220.09803759 186.44193043 -216.75503159 181.01865768 C-215.50806501 178.87374401 -214.26646324 176.72569445 -213.03237534 174.57334518 C-212.4134642 173.50052292 -211.79455307 172.42770065 -211.15688705 171.32236862 C-207.86457467 165.60329658 -204.58994327 159.87413078 -201.31753159 154.14365768 C-200.98609146 153.56327744 -200.65465134 152.98289719 -200.31316757 152.38492966 C-197.95966883 148.2632879 -195.60722905 144.14104218 -193.25503159 140.01865768 C-190.56825947 135.30990859 -187.88101754 130.60142851 -185.19253159 125.89365768 C-184.86101089 125.3131163 -184.5294902 124.73257492 -184.18792343 124.13444138 C-178.7847383 114.67488056 -173.34684213 105.23565223 -167.89712143 95.80283737 C-163.35015182 87.92809085 -158.82679224 80.04004051 -154.31753159 72.14365768 C-153.82236542 71.27657684 -153.82236542 71.27657684 -153.31719589 70.39197922 C-150.96236131 66.26798365 -148.60860323 62.1433741 -146.25503159 58.01865768 C-141.53164195 49.74093261 -136.80558189 41.46476401 -132.07094955 33.19346237 C-130.8965818 31.1402924 -129.72363297 29.0863099 -128.55239487 27.031353 C-127.04052185 24.37902484 -125.52351742 21.72970376 -124.00503159 19.08115768 C-123.57537094 18.32439743 -123.1457103 17.56763718 -122.70302963 16.78794479 C-116.64382573 6.25777733 -116.64382573 6.25777733 -111.31753159 3.76865768 C-110.66913315 3.45412643 -110.02073471 3.13959518 -109.35268784 2.81553268 C-103.98403243 0.77604348 -98.6435656 0.85079833 -92.98037338 0.81333542 C-92.05259079 0.80343582 -91.1248082 0.79353622 -90.16891098 0.78333664 C-87.09738325 0.7517364 -84.02584086 0.72693057 -80.95425034 0.70225143 C-78.79928348 0.68164171 -76.6443203 0.66064431 -74.48936081 0.63927841 C-69.95920516 0.59531201 -65.42903627 0.55441332 -60.89883041 0.51597214 C-55.16288349 0.46729252 -49.42699825 0.41367327 -43.69111538 0.35799694 C-38.1538423 0.3044197 -32.61654838 0.25317303 -27.07925034 0.20225143 C-26.05455832 0.19269361 -25.02986629 0.1831358 -23.974123 0.17328835 C-15.98281357 0.10002889 -7.9915086 0.04580694 0 0 Z M-99.25503159 33.01865768 C-100.77177153 34.88207763 -100.77177153 34.88207763 -102.11831284 37.38975143 C-102.66809799 38.34365768 -103.21788315 39.29756393 -103.78432846 40.28037643 C-104.37278549 41.32838425 -104.96124252 42.37639206 -105.56753159 43.45615768 C-106.49468979 45.07650925 -106.49468979 45.07650925 -107.44057846 46.72959518 C-109.39284823 50.15150674 -111.32694086 53.58307063 -113.25503159 57.01865768 C-114.14520981 58.60444626 -114.14520981 58.60444626 -115.05337143 60.22227097 C-117.3748758 64.36433376 -119.69260142 68.50845233 -122.00234604 72.65708542 C-126.56312405 80.83522936 -131.26398072 88.92452418 -136.00503159 96.99912643 C-140.17747118 104.12393958 -144.23998402 111.3041191 -148.25503159 118.51865768 C-153.39134548 127.74797171 -158.65715693 136.89102741 -164.00503159 145.99912643 C-168.17747118 153.12393958 -172.23998402 160.3041191 -176.25503159 167.51865768 C-181.38974794 176.74510114 -186.65267056 185.88607888 -192.00063705 194.99033737 C-196.22294147 202.19788302 -200.32251953 209.46726239 -204.38003159 216.76865768 C-221.14295655 246.90658264 -221.14295655 246.90658264 -224.25503159 250.01865768 C-225.88244367 250.12469752 -227.51443727 250.16106692 -229.14527512 250.17014694 C-230.20394287 250.1784906 -231.26261063 250.18683426 -232.35335922 250.19543076 C-233.52481491 250.19961517 -234.6962706 250.20379959 -235.90322495 250.20811081 C-237.74204994 250.22055077 -237.74204994 250.22055077 -239.61802292 250.23324203 C-242.29013368 250.25068929 -244.96218633 250.26633635 -247.6343174 250.2790184 C-251.85660784 250.29919299 -256.07882845 250.32685189 -260.30106735 250.35569382 C-269.26485611 250.41585901 -278.2286867 250.46765902 -287.19253159 250.51865768 C-296.86484158 250.57370249 -306.53713043 250.63016538 -316.20937258 250.69620657 C-320.409483 250.72459891 -324.60958514 250.7481797 -328.80974376 250.76813126 C-332.03233545 250.78463382 -335.25488393 250.80743453 -338.4774437 250.82920456 C-340.23159088 250.83548119 -340.23159088 250.83548119 -342.02117538 250.84188461 C-343.08266296 250.85022827 -344.14415054 250.85857193 -345.23780441 250.86716843 C-346.16382934 250.87232216 -347.08985426 250.87747589 -348.04394054 250.8827858 C-350.2967762 250.87639982 -350.2967762 250.87639982 -352.25503159 252.01865768 C-350.9104746 255.56300196 -349.34274814 258.82664962 -347.48940659 262.13193893 C-346.93639877 263.12000534 -346.38339096 264.10807175 -345.81362534 265.12607956 C-345.2167894 266.18375534 -344.61995346 267.24143112 -344.00503159 268.33115768 C-343.3824144 269.4391069 -342.75979721 270.54705612 -342.11831284 271.68857956 C-337.33389293 280.17442695 -332.43997223 288.59366586 -327.50796127 296.99448776 C-323.33421594 304.12066381 -319.27111075 311.30259802 -315.25503159 318.51865768 C-310.15672234 327.67589083 -304.94195103 336.75558938 -299.64126205 345.796978 C-295.17224424 353.42664578 -290.76141527 361.08843254 -286.38003159 368.76865768 C-286.04666794 369.35297562 -285.71330429 369.93729355 -285.36983871 370.53931808 C-283.67499668 373.51057749 -281.98095174 376.4822904 -280.28725815 379.45420456 C-277.28032414 384.72959064 -274.26643542 390.00100206 -271.25301743 395.272686 C-269.58673229 398.18784426 -267.92090531 401.10326431 -266.25503159 404.01865768 C-265.58836711 405.1853256 -264.92170044 406.35199227 -264.25503159 407.51865768 C-246.92169825 437.85199102 -229.58836492 468.18532435 -212.25503159 498.51865768 C-211.92503662 499.09614761 -211.59504166 499.67363754 -211.25504684 500.26862717 C-210.58832493 501.43539305 -209.9216074 502.60216145 -209.25489426 503.76893234 C-207.58910874 506.68410147 -205.92324731 509.59922715 -204.25722885 512.51426315 C-201.24662845 517.78208963 -198.23659011 523.05023327 -195.2293663 528.31998825 C-188.43025201 540.23441913 -181.61749985 552.14054572 -174.75503159 564.01865768 C-167.55290365 576.48467991 -160.40673483 588.98227012 -153.27114487 601.48643112 C-151.26567344 605.00046447 -149.25864958 608.51360926 -147.25112534 612.02647018 C-146.75642746 612.89211594 -146.75642746 612.89211594 -146.25173569 613.77524948 C-145.25286064 615.52306726 -144.2539527 617.27086623 -143.25503159 619.01865768 C-139.57845334 625.45149 -135.9018922 631.88432917 -132.22959518 638.31960678 C-130.88459757 640.67648782 -129.53923953 643.03316298 -128.19378281 645.38978195 C-127.20155068 647.12785908 -126.20961302 648.8661043 -125.21767807 650.60435104 C-121.81317672 656.56423204 -118.3939542 662.51490856 -114.95034409 668.45225143 C-114.60095276 669.0552507 -114.25156143 669.65824997 -113.89158249 670.27952194 C-112.21855014 673.16676074 -110.54284441 676.05233416 -108.86220932 678.93516159 C-108.27125473 679.95400436 -107.68030014 680.97284714 -107.07143784 682.02256393 C-106.55009262 682.91789841 -106.02874741 683.81323288 -105.49160385 684.7356987 C-104.25503159 687.01865768 -104.25503159 687.01865768 -103.25503159 690.01865768 C-103.88948543 690.02104604 -104.52393927 690.02343439 -105.17761898 690.02589512 C-120.61811382 690.08504135 -136.05842823 690.16058885 -151.49874783 690.2543726 C-158.96559042 690.29933066 -166.43238532 690.33874525 -173.8993187 690.36509323 C-180.40780357 690.3880733 -186.91613751 690.42147127 -193.42450267 690.46735924 C-196.87038683 690.49129156 -200.3161215 690.51002019 -203.76208687 690.51627159 C-207.60975536 690.52344698 -211.45704928 690.55388198 -215.30459213 690.58628464 C-216.44610733 690.58484955 -217.58762253 690.58341446 -218.7637291 690.58193588 C-219.81395752 690.59447403 -220.86418594 690.60701218 -221.94623947 690.61993027 C-222.85604915 690.62453923 -223.76585882 690.6291482 -224.70323849 690.63389683 C-227.82259451 691.10423515 -229.70120953 692.19343495 -232.25503159 694.01865768 C-234.12286206 696.49968989 -234.12286206 696.49968989 -235.68081284 699.45225143 C-236.61570541 701.11610886 -236.61570541 701.11610886 -237.56948471 702.81357956 C-238.23560054 704.0277173 -238.9016133 705.24191159 -239.56753159 706.45615768 C-240.27258213 707.71927059 -240.97898673 708.98162854 -241.68667221 710.24326706 C-243.15564158 712.86455882 -244.61873428 715.4890013 -246.07778549 718.11582565 C-249.41597948 724.11441245 -252.83963703 730.06378404 -256.25503159 736.01865768 C-257.58099306 738.33741793 -258.90659119 740.65638128 -260.23159409 742.97568893 C-260.56041077 743.55104385 -260.88922745 744.12639877 -261.22800827 744.71918869 C-263.29044719 748.3284175 -265.35042303 751.9390422 -267.40876389 755.55060959 C-268.80603485 758.00198975 -270.20428976 760.45280823 -271.60247421 762.90366745 C-272.61601143 764.68156422 -273.62783601 766.46042781 -274.63955307 768.23936081 C-277.54327956 773.33262156 -280.46583723 778.40644117 -283.51675034 783.41318893 C-283.99644272 784.20443161 -284.4761351 784.99567429 -284.97036362 785.81089401 C-285.83650738 787.23034635 -286.71299404 788.64356652 -287.60219955 790.04868698 C-289.78054361 793.38849249 -289.78054361 793.38849249 -289.85049057 797.21397018 C-289.65398911 797.80951706 -289.45748764 798.40506393 -289.25503159 799.01865768 C-287.34337393 799.02085752 -287.34337393 799.02085752 -285.39309692 799.02310181 C-255.15469206 799.05878769 -224.91640313 799.11500545 -194.67808987 799.19657864 C-190.95796928 799.20659634 -187.23784824 799.21644043 -183.5177269 799.22617722 C-182.77710368 799.22811859 -182.03648045 799.23005996 -181.27341411 799.23206016 C-169.27424775 799.26309897 -157.27510053 799.28006605 -145.27590159 799.29185191 C-132.96773251 799.30425375 -120.65966403 799.3317332 -108.35155845 799.37327075 C-100.75400684 799.39843399 -93.15662199 799.41177292 -85.55902812 799.41008726 C-79.73760462 799.41005404 -73.91637626 799.43097715 -68.09502029 799.45982552 C-65.70368018 799.46836881 -63.31230452 799.47004467 -60.92095566 799.46446037 C-57.66395655 799.45786568 -54.40798434 799.47563298 -51.15108871 799.49967575 C-50.1977849 799.49191533 -49.24448109 799.48415492 -48.26228929 799.47615933 C-41.86914289 799.56010316 -41.86914289 799.56010316 -38.73134613 801.9030838 C-37.10861359 804.22847617 -35.65253899 806.54341752 -34.29409409 809.03428268 C-33.74753159 810.02557175 -33.20096909 811.01686081 -32.63784409 812.03818893 C-31.7677269 813.63727097 -31.7677269 813.63727097 -30.88003159 815.26865768 C-29.62408119 817.54572741 -28.36621997 819.8217441 -27.10659409 822.09678268 C-26.78636276 822.67609543 -26.46613144 823.25540817 -26.13619614 823.85227585 C-22.93476192 829.62907887 -19.60444499 835.32683168 -16.25503159 841.01865768 C-11.48987661 849.13233593 -6.83102132 857.29683539 -2.25503159 865.51865768 C2.54006765 874.1285639 7.40874864 882.69078678 12.36996841 891.20615768 C12.95004654 892.20389206 13.53012466 893.20162643 14.12778091 894.22959518 C15.65170764 896.83536611 17.19196393 899.43013701 18.74496841 902.01865768 C19.13394302 902.67946335 19.52291763 903.34026901 19.92367935 904.02109909 C21.01267618 905.85082351 21.01267618 905.85082351 22.74496841 908.01865768 C23.73496841 908.01865768 24.72496841 908.01865768 25.74496841 908.01865768 C27.43985834 905.96063586 27.43985834 905.96063586 29.05746841 903.08115768 C29.39375259 902.51759567 29.73003677 901.95403366 30.07651138 901.37339401 C34.24717148 894.30659401 38.19875376 887.10909466 42.18759537 879.9388237 C46.28698004 872.57966124 50.47792882 865.28174209 54.74496841 858.01865768 C59.50948738 849.90460606 64.16925204 841.74064805 68.74496841 833.51865768 C73.8812823 824.28934366 79.14709376 815.14628796 84.49496841 806.03818893 C88.66740801 798.91337579 92.72992085 791.73319627 96.74496841 784.51865768 C101.8812823 775.28934366 107.14709376 766.14628796 112.49496841 757.03818893 C116.66740871 749.9133746 120.72987213 742.73317003 124.74496841 735.51865768 C129.90586083 726.24649701 135.19228012 717.05739769 140.56088638 707.90415573 C145.66829533 699.18406708 150.64526003 690.39399621 155.60434341 681.58897018 C162.97952376 668.49416966 170.47875 655.4703597 177.99496841 642.45615768 C183.28232661 633.29892352 188.55767229 624.13497267 193.80746841 614.95615768 C194.14010696 614.37456894 194.47274551 613.79298019 194.81546402 613.19376755 C199.63229938 604.76657238 204.39155409 596.30826562 209.11996841 587.83115768 C213.25743797 580.41477645 217.45237827 573.04359348 221.78647232 565.74058151 C225.75559642 559.03800403 229.63050423 552.2819247 233.49496841 545.51865768 C234.00948563 544.61831299 234.00948563 544.61831299 234.53439713 543.69977951 C239.9392201 534.23563868 245.26990699 524.73153665 250.5735817 515.21030807 C255.31030747 506.73323976 260.18581214 498.34119288 265.1282692 489.98252487 C267.56565482 485.84378514 269.91932423 481.74210862 271.97153091 477.39756393 C273.74496841 474.01865768 273.74496841 474.01865768 276.49496841 473.01865768 C277.23746841 473.01865768 277.97996841 473.01865768 278.74496841 473.01865768 C279.00817886 473.71942429 279.27138931 474.42019089 279.54257584 475.14219284 C280.83792351 478.2410327 282.35639729 481.1036314 283.98324966 484.04209518 C284.30010223 484.61599991 284.6169548 485.18990463 284.94340897 485.78120041 C285.97842366 487.65370107 287.01779885 489.52373813 288.05746841 491.39365768 C288.78400074 492.70510768 289.51039895 494.01663198 290.23666763 495.328228 C295.61559935 505.03139894 301.05979403 514.69708027 306.53403091 524.34678268 C309.96106766 530.39102103 313.35402329 536.4541187 316.74496841 542.51865768 C319.07729023 546.68589134 321.41068974 550.85251986 323.74496841 555.01865768 C324.34470474 556.08906296 324.94444107 557.15946823 325.56235123 558.26231003 C327.3288093 561.4118126 329.09884067 564.55927923 330.86996841 567.70615768 C331.40235123 568.65619675 331.93473404 569.60623581 332.48324966 570.58506393 C332.98469498 571.47451706 333.48614029 572.36397018 334.00278091 573.28037643 C334.65464371 574.43992844 334.65464371 574.43992844 335.31967545 575.62290573 C335.79002213 576.41350388 336.2603688 577.20410202 336.74496841 578.01865768 C337.42853157 579.55621216 337.42853157 579.55621216 338.12590408 581.12482834 C341.0820811 584.39113673 341.55395054 584.46923873 345.7234993 584.74691391 C347.84068972 584.76738604 349.95835526 584.75439379 352.07529068 584.71567917 C353.80995087 584.71940285 353.80995087 584.71940285 355.57965469 584.72320175 C359.40755716 584.72412109 363.23372799 584.68227868 367.06137466 584.63975143 C369.71650899 584.63109879 372.37155516 584.6247043 375.02669144 584.62121201 C380.59276825 584.60925644 386.15834948 584.575453 391.72421646 584.52622604 C399.57438006 584.45684149 407.42432165 584.4274801 415.27474129 584.4058255 C421.37031915 584.38752374 427.46584866 584.35794471 433.56137466 584.32725143 C434.8649901 584.32082563 436.16860554 584.31439983 437.51172447 584.30777931 C441.18923516 584.28685034 444.86660407 584.2585572 448.54404068 584.22739792 C449.63970856 584.22156693 450.73537643 584.21573593 451.86424637 584.20972824 C452.86387405 584.19968262 453.86350174 584.18963699 454.89342117 584.17928696 C455.76300744 584.17241584 456.63259371 584.16554472 457.52853107 584.15846539 C459.9198233 584.10252744 459.9198233 584.10252744 462.74496841 583.01865768 C461.40041143 579.47431341 459.83268497 576.21066575 457.97934341 572.90537643 C457.4263356 571.91731003 456.87332779 570.92924362 456.30356216 569.91123581 C455.70672623 568.85356003 455.10989029 567.79588425 454.49496841 566.70615768 C453.87235123 565.59820847 453.24973404 564.49025925 452.60824966 563.34873581 C447.82512088 554.86517842 442.93186566 546.44861625 438.00229263 538.0494194 C433.18093968 529.81557661 428.50476623 521.50571878 423.85873795 513.171978 C418.70303804 503.92617637 413.46205351 494.73124235 408.19516373 485.54844284 C405.79050069 481.35364176 403.39310025 477.15469481 400.99496841 472.95615768 C399.99500399 471.20613736 398.99500297 469.45613794 397.99496841 467.70615768 C350.46371841 384.52647018 350.46371841 384.52647018 348.65121841 381.32432175 C347.28598308 378.95684142 345.89654536 376.62441528 344.46371841 374.29893112 C344.08831924 373.67694839 343.71292007 373.05496567 343.32614517 372.41413498 C342.27292461 370.67131673 341.20373959 368.93817525 340.13364029 367.2056694 C338.50410882 363.46588321 338.56849285 361.88031925 339.74496841 358.01865768 C340.92148209 355.53110886 340.92148209 355.53110886 342.41293716 353.06162643 C342.9690065 352.12737839 343.52507584 351.19313034 344.09799576 350.23057175 C345.00605972 348.73348679 345.00605972 348.73348679 345.93246841 347.20615768 C347.22217443 345.03934579 348.50987685 342.8713403 349.79574966 340.70225143 C350.45526627 339.59220749 351.11478287 338.48216354 351.79428482 337.3384819 C354.81738914 332.19352914 357.7217237 326.98466474 360.61996841 321.76865768 C365.60426616 312.81857121 370.65054369 303.90632045 375.74496841 295.01865768 C381.07924463 285.70892148 386.37572233 276.37947272 391.61996841 267.01865768 C392.50362076 265.44277878 392.50362076 265.44277878 393.40512466 263.83506393 C396.681441 257.98320476 396.681441 257.98320476 399.74496841 252.01865768 C396.58834039 250.44034367 393.20266518 250.88411613 389.73703957 250.89560986 C388.89561016 250.89445601 388.05418075 250.89330217 387.18725348 250.89211336 C384.33695542 250.88944354 381.48671263 250.89397186 378.63641739 250.89840317 C376.58466536 250.89796754 374.53291339 250.89709279 372.48116171 250.895814 C366.81909119 250.89356737 361.15703941 250.89759262 355.49497128 250.90259206 C349.39815329 250.90689398 343.30133644 250.90545032 337.20451736 250.90468979 C326.63338687 250.90416439 316.06226316 250.90727811 305.49113464 250.91292763 C294.40100831 250.91883936 283.31088443 250.9226925 272.22075653 250.92378044 C271.18744123 250.92388355 271.18744123 250.92388355 270.13325086 250.92398874 C266.63496646 250.92432706 263.13668206 250.92462845 259.63839765 250.92491562 C234.8431904 250.92701749 210.04798636 250.93375892 185.25278091 250.94321823 C161.16065869 250.95239872 137.06853735 250.95948427 112.97641373 250.96372604 C111.86298962 250.96392333 111.86298962 250.96392333 110.7270721 250.96412461 C103.27294159 250.9654431 95.81881106 250.96671892 88.36468054 250.96796347 C73.17899398 250.97049986 57.99330748 250.97332111 42.807621 250.97631454 C41.76024088 250.97652048 41.76024088 250.97652048 40.69170156 250.97673057 C-5.95721085 250.9859353 -52.60612138 251.00180173 -99.25503159 251.01865768 C-98.62107982 249.4115842 -97.98493704 247.8053749 -97.34786606 246.19953537 C-96.99384846 245.30498579 -96.63983086 244.41043621 -96.27508545 243.48877907 C-95.15736759 240.78215849 -93.86788135 238.28870442 -92.36440659 235.77647018 C-91.82831772 234.87058151 -91.29222885 233.96469284 -90.73989487 233.031353 C-90.16738998 232.07841354 -89.5948851 231.12547409 -89.00503159 230.14365768 C-87.74599952 228.01677498 -86.48823772 225.88913994 -85.23159409 223.76084518 C-84.57836166 222.65708542 -83.92512924 221.55332565 -83.2521019 220.41611862 C-79.90967927 214.72991407 -76.64470357 208.99972857 -73.38003159 203.26865768 C-72.7095224 202.09292147 -72.03894919 200.91722176 -71.36831284 199.74155807 C-70.01337226 197.3659182 -68.65895331 194.9899819 -67.30483627 192.61387253 C-64.89741439 188.39032285 -62.48595429 184.16908387 -60.0726738 179.94887924 C-58.38278163 176.99354074 -56.69477712 174.03716611 -55.01162338 171.07798386 C-51.90034329 165.61469874 -48.76436816 160.17084809 -45.54800034 154.76865768 C-44.97920151 153.80371384 -44.41040268 152.83876999 -43.82436752 151.84458542 C-42.76801239 150.05570395 -41.70033832 148.2734383 -40.6192894 146.49937057 C-39.92657944 145.31975754 -39.92657944 145.31975754 -39.21987534 144.11631393 C-38.61067245 143.10323166 -38.61067245 143.10323166 -37.98916245 142.06968307 C-36.99618066 139.29547624 -37.38632349 137.82070337 -38.25503159 135.01865768 C-39.15116186 133.13549036 -40.12154763 131.28681983 -41.14175034 129.46787643 C-42.04389267 127.85018356 -42.04389267 127.85018356 -42.9642601 126.19981003 C-43.62341446 125.0351067 -44.2828455 123.87055993 -44.94253159 122.70615768 C-45.62380444 121.49233233 -46.30470736 120.27829928 -46.9852562 119.06406784 C-51.91042934 110.29972646 -56.95887098 101.60862641 -62.05263901 92.94126511 C-66.81004486 84.83221769 -71.40594324 76.6395021 -75.97671127 68.42417526 C-81.85944343 57.87832205 -87.95160601 47.45752499 -94.07851791 37.05210495 C-94.84360811 35.7297484 -95.57180544 34.38510998 -96.25503159 33.01865768 C-97.24503159 33.01865768 -98.23503159 33.01865768 -99.25503159 33.01865768 Z " fill="#684FEE" transform="translate(489.25503158569336,41.98134231567383)"/>
<path d="M0 0 C9.55890959 0.00802791 19.11781817 0.01342107 28.67673039 0.01709497 C29.69915622 0.01748905 29.69915622 0.01748905 30.74223711 0.0178911 C34.16464789 0.01919695 37.5870587 0.02046047 41.00946951 0.021703 C69.01526089 0.03192469 97.02104405 0.04948295 125.02682805 0.07202661 C124.39160241 4.30207976 123.61642647 7.28900315 121.39401555 10.95874536 C120.84294133 11.88300317 120.29186711 12.80726099 119.72409368 13.75952661 C119.12274602 14.74952661 118.52139836 15.73952661 117.90182805 16.75952661 C116.61541132 18.91815778 115.33165199 21.07837436 114.05026555 23.23999536 C113.05204778 24.92294702 113.05204778 24.92294702 112.03366399 26.6398977 C108.76549793 32.22917732 105.64776874 37.89963309 102.52682805 43.57202661 C97.25160951 53.13565867 91.83441928 62.59998103 86.2963593 72.01343286 C81.92419804 79.4706697 77.70292728 87.00348591 73.52682805 94.57202661 C68.22602832 104.17788817 62.78903615 113.68877579 57.23044133 123.14746606 C52.42084 131.34956616 47.76172985 139.63016199 43.13156438 147.93457544 C38.04036377 157.06369847 32.86631297 166.14313329 27.66647649 175.21069849 C24.87107879 180.08890888 22.0831193 184.97136915 19.29434514 189.85336816 C17.58567305 192.84438989 15.87653831 195.83514722 14.16745305 198.82593286 C13.47539357 200.03703187 12.78333628 201.24813213 12.09128118 202.45923364 C8.00924993 209.60278833 8.00924993 209.60278833 7.00886846 211.35333765 C6.34333753 212.51809566 5.67794259 213.68293138 5.01268315 214.84784448 C3.3622883 217.73740532 1.7091138 220.62528695 0.05197453 223.51099145 C-3.09125315 228.9906373 -6.21009462 234.47980443 -9.25487971 240.01486719 C-10.69895624 242.63688965 -12.155253 245.2520266 -13.61257625 247.86670434 C-14.30591333 249.1188456 -14.99320127 250.37435739 -15.67409968 251.63330591 C-16.61663405 253.37511316 -17.58152114 255.10476892 -18.5473907 256.83374536 C-19.08968318 257.82334253 -19.63197566 258.8129397 -20.19070125 259.83252466 C-21.97317195 262.07202661 -21.97317195 262.07202661 -24.68728328 262.89941919 C-25.81879817 262.98485986 -25.81879817 262.98485986 -26.97317195 263.07202661 C-35.10370454 249.39084196 -42.99618879 235.57540824 -50.87649226 221.7492727 C-53.90650703 216.43384832 -56.94314292 211.1222087 -59.97948909 205.81039941 C-61.6429382 202.90032136 -63.30614449 199.99010457 -64.9692657 197.07983911 C-65.29908946 196.50269662 -65.62891322 195.92555414 -65.96873164 195.33092248 C-67.97982717 191.81145161 -69.98976605 188.29132288 -71.99883723 184.77069604 C-78.79795152 172.85626516 -85.61070368 160.95013857 -92.47317195 149.07202661 C-99.67529988 136.60600438 -106.82146871 124.10841417 -113.95705867 111.60425317 C-116.96050371 106.34154741 -119.9674716 101.08085475 -122.97417903 95.82001245 C-124.64065477 92.90409989 -126.30690176 89.98805663 -127.97317195 87.07202661 C-128.63983752 85.90535932 -129.30650419 84.73869265 -129.97317195 83.57202661 C-131.30650528 81.23869328 -132.63983862 78.90535994 -133.97317195 76.57202661 C-134.30314677 75.99457193 -134.6331216 75.41711725 -134.97309566 74.82216394 C-135.64002102 73.65504201 -136.30694199 72.48791758 -136.97385859 71.32079065 C-138.63653136 68.41106894 -140.29927933 65.50139026 -141.96218562 62.591802 C-145.00986852 57.25909291 -148.05695474 51.92604679 -151.10125422 46.59140527 C-152.14425888 44.76384577 -153.18759922 42.93647823 -154.23098445 41.10913599 C-155.58512643 38.73746584 -156.93782239 36.36497934 -158.2895782 33.99194849 C-161.298598 28.71713677 -164.3247213 23.45550988 -167.4223907 18.23218286 C-167.94212459 17.35183374 -168.46185847 16.47148462 -168.99734187 15.56445825 C-169.94958309 13.95628115 -170.90888541 12.35225434 -171.8767364 10.75342309 C-172.29012263 10.05418725 -172.70350886 9.35495142 -173.12942195 8.63452661 C-173.66792781 7.7392727 -173.66792781 7.7392727 -174.21731257 6.82593286 C-174.97317195 5.07202661 -174.97317195 5.07202661 -174.97317195 1.07202661 C-116.65450206 -0.22309943 -58.32962985 -0.049542 0 0 Z " fill="#684FEE" transform="translate(536.9731719493866,415.92797338962555)"/>
</svg>
